<?xml version="1.0" encoding="utf-8"?>
<!-- Generator: Adobe Illustrator 17.0.0, SVG Export Plug-In . SVG Version: 6.00 Build 0)  -->
<!DOCTYPE svg PUBLIC "-//W3C//DTD SVG 1.1//EN" "http://www.w3.org/Graphics/SVG/1.1/DTD/svg11.dtd">
<svg version="1.1" id="Layer_1" xmlns="http://www.w3.org/2000/svg" xmlns:xlink="http://www.w3.org/1999/xlink" x="0px" y="0px"
	 width="71.238px" height="56.716px" viewBox="0 0 71.238 56.716" enable-background="new 0 0 71.238 56.716" xml:space="preserve">
<g>
	<linearGradient id="SVGID_1_" gradientUnits="userSpaceOnUse" x1="1.3236" y1="7.6792" x2="60.9009" y2="67.2565">
		<stop  offset="0" style="stop-color:#17B5FF"/>
		<stop  offset="0.2232" style="stop-color:#1BB9FC"/>
		<stop  offset="0.4499" style="stop-color:#26C5F4"/>
		<stop  offset="0.6775" style="stop-color:#39D9E6"/>
		<stop  offset="0.7945" style="stop-color:#45E7DD"/>
		<stop  offset="1" style="stop-color:#45E7DD"/>
	</linearGradient>
	<path fill="url(#SVGID_1_)" d="M5.567,23.816c-1.546,0-2.861-0.541-3.943-1.624C0.541,21.11,0,19.802,0,18.268V5.576
		C0,4.03,0.544,2.716,1.633,1.633c1.088-1.082,2.4-1.624,3.934-1.624c1.546,0,2.858,0.545,3.934,1.633
		c1.076,1.089,1.614,2.4,1.614,3.934V8.23H7.478V5.502c0-0.557-0.198-1.033-0.594-1.429C6.488,3.678,6.012,3.479,5.455,3.479
		c-0.557,0-1.03,0.198-1.419,0.594c-0.39,0.396-0.585,0.872-0.585,1.429v12.729c0,0.557,0.195,1.03,0.585,1.419
		c0.39,0.39,0.863,0.585,1.419,0.585c0.557,0,1.033-0.195,1.429-0.585c0.396-0.39,0.594-0.863,0.594-1.419v-3.21h3.637v3.247
		c0,1.546-0.544,2.858-1.633,3.933C8.393,23.278,7.088,23.816,5.567,23.816z"/>
	<linearGradient id="SVGID_2_" gradientUnits="userSpaceOnUse" x1="21.2462" y1="-12.2433" x2="80.8234" y2="47.334">
		<stop  offset="0" style="stop-color:#17B5FF"/>
		<stop  offset="0.2232" style="stop-color:#1BB9FC"/>
		<stop  offset="0.4499" style="stop-color:#26C5F4"/>
		<stop  offset="0.6775" style="stop-color:#39D9E6"/>
		<stop  offset="0.7945" style="stop-color:#45E7DD"/>
		<stop  offset="1" style="stop-color:#45E7DD"/>
	</linearGradient>
	<path fill="url(#SVGID_2_)" d="M52.504,17.952c0,1.534-0.538,2.845-1.614,3.934s-2.375,1.633-3.897,1.633h-5.511V0.251h5.511
		c1.534,0,2.836,0.544,3.906,1.633c1.07,1.089,1.605,2.393,1.605,3.915V17.952z M44.989,20.049h2.115
		c0.557,0,1.027-0.201,1.41-0.603c0.383-0.402,0.575-0.875,0.575-1.419V5.855c0-0.557-0.195-1.033-0.585-1.429
		c-0.39-0.396-0.857-0.594-1.401-0.594h-2.115V20.049z"/>
	<linearGradient id="SVGID_3_" gradientUnits="userSpaceOnUse" x1="31.3422" y1="-22.3393" x2="90.9195" y2="37.238">
		<stop  offset="0" style="stop-color:#17B5FF"/>
		<stop  offset="0.2232" style="stop-color:#1BB9FC"/>
		<stop  offset="0.4499" style="stop-color:#26C5F4"/>
		<stop  offset="0.6775" style="stop-color:#39D9E6"/>
		<stop  offset="0.7945" style="stop-color:#45E7DD"/>
		<stop  offset="1" style="stop-color:#45E7DD"/>
	</linearGradient>
	<path fill="url(#SVGID_3_)" d="M60.575,23.519V0.251h9.983v3.526h-6.476v6.346h4.731v3.525h-4.731v6.346h6.476v3.526H60.575z"/>
	<linearGradient id="SVGID_4_" gradientUnits="userSpaceOnUse" x1="-15.9504" y1="24.9532" x2="43.6269" y2="84.5305">
		<stop  offset="0" style="stop-color:#17B5FF"/>
		<stop  offset="0.2232" style="stop-color:#1BB9FC"/>
		<stop  offset="0.4499" style="stop-color:#26C5F4"/>
		<stop  offset="0.6775" style="stop-color:#39D9E6"/>
		<stop  offset="0.7945" style="stop-color:#45E7DD"/>
		<stop  offset="1" style="stop-color:#45E7DD"/>
	</linearGradient>
	<path fill="url(#SVGID_4_)" d="M11.99,56.716H2.434v-23.25h3.507v19.761h6.049V56.716z"/>
	<linearGradient id="SVGID_5_" gradientUnits="userSpaceOnUse" x1="-5.1589" y1="14.1617" x2="54.4184" y2="73.739">
		<stop  offset="0" style="stop-color:#17B5FF"/>
		<stop  offset="0.2232" style="stop-color:#1BB9FC"/>
		<stop  offset="0.4499" style="stop-color:#26C5F4"/>
		<stop  offset="0.6775" style="stop-color:#39D9E6"/>
		<stop  offset="0.7945" style="stop-color:#45E7DD"/>
		<stop  offset="1" style="stop-color:#45E7DD"/>
	</linearGradient>
	<path fill="url(#SVGID_5_)" d="M27.524,56.716h-3.507v-23.25h3.507V56.716z"/>
	<linearGradient id="SVGID_6_" gradientUnits="userSpaceOnUse" x1="6.1871" y1="2.8158" x2="65.7643" y2="62.3931">
		<stop  offset="0" style="stop-color:#17B5FF"/>
		<stop  offset="0.2232" style="stop-color:#1BB9FC"/>
		<stop  offset="0.4499" style="stop-color:#26C5F4"/>
		<stop  offset="0.6775" style="stop-color:#39D9E6"/>
		<stop  offset="0.7945" style="stop-color:#45E7DD"/>
		<stop  offset="1" style="stop-color:#45E7DD"/>
	</linearGradient>
	<path fill="url(#SVGID_6_)" d="M44.853,36.992h-3.73v-3.526h10.948v3.526H48.36v19.724h-3.507V36.992z"/>
	<linearGradient id="SVGID_7_" gradientUnits="userSpaceOnUse" x1="15.7706" y1="-6.7677" x2="75.3479" y2="52.8096">
		<stop  offset="0" style="stop-color:#17B5FF"/>
		<stop  offset="0.2232" style="stop-color:#1BB9FC"/>
		<stop  offset="0.4499" style="stop-color:#26C5F4"/>
		<stop  offset="0.6775" style="stop-color:#39D9E6"/>
		<stop  offset="0.7945" style="stop-color:#45E7DD"/>
		<stop  offset="1" style="stop-color:#45E7DD"/>
	</linearGradient>
	<path fill="url(#SVGID_7_)" d="M64.02,36.992h-3.73v-3.526h10.948v3.526h-3.711v19.724H64.02V36.992z"/>
	<linearGradient id="SVGID_8_" gradientUnits="userSpaceOnUse" x1="11.9683" y1="-2.9654" x2="71.5456" y2="56.6118">
		<stop  offset="0" style="stop-color:#17B5FF"/>
		<stop  offset="0.2232" style="stop-color:#1BB9FC"/>
		<stop  offset="0.4499" style="stop-color:#26C5F4"/>
		<stop  offset="0.6775" style="stop-color:#39D9E6"/>
		<stop  offset="0.7945" style="stop-color:#45E7DD"/>
		<stop  offset="1" style="stop-color:#45E7DD"/>
	</linearGradient>
	<path fill="url(#SVGID_8_)" d="M37.499,6.852l-1.557-2.871l-4.659,2.526V5.567c0-1.533-0.541-2.845-1.624-3.934
		C28.577,0.545,27.263,0,25.717,0c-1.521,0-2.827,0.542-3.915,1.624c-1.089,1.083-1.633,2.397-1.633,3.943v6.968l-5.455,2.958
		l1.557,2.871l3.898-2.114v2.009c0,1.534,0.538,2.845,1.614,3.934c1.076,1.089,2.387,1.633,3.934,1.633
		c1.534,0,2.845-0.541,3.934-1.624c1.089-1.082,1.633-2.397,1.633-3.943v-8.036L37.499,6.852z M23.602,5.493
		c0-0.557,0.198-1.03,0.594-1.419c0.396-0.39,0.872-0.585,1.429-0.585c0.557,0,1.03,0.195,1.419,0.585
		c0.39,0.39,0.584,0.863,0.584,1.419V8.49l-4.026,2.183V5.493z M27.628,18.222c0,0.557-0.195,1.03-0.584,1.42
		c-0.39,0.39-0.863,0.584-1.419,0.584c-0.557,0-1.033-0.195-1.429-0.584c-0.396-0.39-0.594-0.863-0.594-1.42v-3.833l4.026-2.183
		V18.222z"/>
</g>
</svg>
