<?xml version="1.0" encoding="utf-8"?>
<!-- Generator: Adobe Illustrator 17.0.0, SVG Export Plug-In . SVG Version: 6.00 Build 0)  -->
<!DOCTYPE svg PUBLIC "-//W3C//DTD SVG 1.1//EN" "http://www.w3.org/Graphics/SVG/1.1/DTD/svg11.dtd">
<svg version="1.1" id="Layer_1" xmlns="http://www.w3.org/2000/svg" xmlns:xlink="http://www.w3.org/1999/xlink" x="0px" y="0px"
	 width="23px" height="23px" viewBox="0 0 23 23" enable-background="new 0 0 23 23" xml:space="preserve">
<g>
	<circle fill="#45E7DD" cx="11.5" cy="11.5" r="11.5"/>
	<path fill="#151C2D" d="M18.548,7.705c-0.359,0.524-0.808,0.996-1.347,1.415v0.314c0,0.898-0.168,1.808-0.505,2.728
		c-0.337,0.921-0.831,1.752-1.482,2.493c-0.651,0.741-1.452,1.344-2.403,1.808c-0.951,0.464-2.047,0.696-3.29,0.696
		c-0.763,0-1.493-0.108-2.189-0.326c-0.696-0.217-1.351-0.52-1.965-0.909c0.105,0.015,0.209,0.022,0.314,0.022
		c0.104,0,0.217,0,0.337,0c1.287,0,2.403-0.382,3.346-1.145c-0.599-0.015-1.127-0.198-1.583-0.55
		c-0.457-0.352-0.767-0.797-0.932-1.336c0.18,0.045,0.344,0.067,0.494,0.067c0.135,0,0.258-0.007,0.37-0.022
		c0.112-0.015,0.228-0.037,0.348-0.067c-0.629-0.135-1.149-0.445-1.561-0.932c-0.412-0.486-0.618-1.059-0.618-1.718V10.22
		c0.18,0.09,0.37,0.165,0.573,0.225c0.202,0.06,0.43,0.09,0.685,0.09c-0.39-0.239-0.689-0.554-0.898-0.943
		c-0.21-0.389-0.314-0.823-0.314-1.302c0-0.479,0.12-0.935,0.359-1.37c0.674,0.838,1.49,1.508,2.448,2.01
		c0.958,0.502,1.998,0.775,3.121,0.82c-0.045-0.18-0.067-0.374-0.067-0.584c0-0.374,0.071-0.73,0.213-1.067
		c0.142-0.337,0.337-0.629,0.584-0.876c0.247-0.247,0.531-0.441,0.853-0.584c0.322-0.142,0.67-0.213,1.044-0.213
		c0.404,0,0.771,0.079,1.1,0.236c0.329,0.157,0.621,0.363,0.876,0.618c0.299-0.045,0.599-0.127,0.898-0.247
		c0.299-0.12,0.576-0.247,0.831-0.382c-0.24,0.629-0.636,1.123-1.19,1.482c0.284-0.03,0.554-0.082,0.808-0.157
		C18.062,7.9,18.309,7.81,18.548,7.705z"/>
</g>
</svg>
