<?xml version="1.0" encoding="utf-8"?>
<!-- Generator: Adobe Illustrator 17.0.0, SVG Export Plug-In . SVG Version: 6.00 Build 0)  -->
<!DOCTYPE svg PUBLIC "-//W3C//DTD SVG 1.1//EN" "http://www.w3.org/Graphics/SVG/1.1/DTD/svg11.dtd">
<svg version="1.1" id="Layer_1" xmlns="http://www.w3.org/2000/svg" xmlns:xlink="http://www.w3.org/1999/xlink" x="0px" y="0px"
	 width="750px" height="108.135px" viewBox="0 0 750 108.135" enable-background="new 0 0 750 108.135" xml:space="preserve">
<g>
	<g>
		<rect x="44.954" y="49.116" fill="#47B1E4" width="20.707" height="1.169"/>
		<rect x="44.954" y="55.224" fill="#47B1E4" width="20.707" height="1.17"/>
		<rect x="44.954" y="43.007" fill="#47B1E4" width="9.801" height="1.17"/>
		<rect x="44.954" y="36.897" fill="#47B1E4" width="9.801" height="1.17"/>
		<rect x="44.954" y="61.333" fill="#47B1E4" width="20.707" height="1.17"/>
		<rect x="44.954" y="67.445" fill="#47B1E4" width="20.707" height="1.17"/>
		<path fill="#47B1E4" d="M75.923,40.813v-0.017h-0.016l-2.321-2.492l-1.168-1.254l-7.477-8.026l-1.088-1.168l-2.126-2.282
			l-0.066,0.062v-0.117h-2.285H34.111v54.244h41.812V43.219v-2.398l0.004-0.004L75.923,40.813z M62.219,29.536l0.031,0.033
			l9.684,10.395l0.268,0.287h-0.268v0.078h-9.715v-0.078h-0.047V29.569v-0.084L62.219,29.536z M72.418,76.257H37.617V29.024h21.758
			v14.195h13.043V76.257z"/>
	</g>
	<g>
		<g>
			<path fill="#47B1E4" d="M697.848,49.772l-0.369,0.369l0.004,0.007l-0.008,0.002l-3.563,11.874l11.861-3.613v-0.007l0.001,0.002
				l0.35-0.352l7.547-7.495l4.725-4.692l1.437-1.444l1.542-1.55l2.351-2.363l4.819-4.844l1.531-1.54l-8.256-8.221l-1.518,1.519
				l-1.005,1.006l-2.168,2.17l-1.444,1.436l-3.916,3.894l-6.383,6.345L697.848,49.772z M721.131,31.007l0.656-0.651l1.687,1.681
				l0.252,0.251l1.935,1.927l-1.935,1.935l-0.08,0.08l-2.271-2.27l-1.605-1.604l0.323-0.32L721.131,31.007z M716.208,35.93
				l2.019-2.008l0.168,0.168l2.979,2.979l0.717,0.717l-0.717,0.718l-1.542,1.543l-1.437,1.438l-6.928,6.87l-7.552,7.489
				l-0.429,0.429l-3.631,1.093l-1.298-1.288l1.057-3.649l0.443-0.444l7.541-7.497L716.208,35.93z"/>
			<path fill="#47B1E4" d="M728.28,67.65h-4.554V47.458l-3.894,3.894V67.65h-46.567V35.93h31.9l3.894-3.894h-39.687V67.65h-4.553
				c-1.548,0-2.803,1.255-2.803,2.803v1.284c0,1.548,1.255,2.803,2.803,2.803h63.461c1.548,0,2.803-1.255,2.803-2.803v-1.284
				C731.082,68.904,729.827,67.65,728.28,67.65z M717.127,71.824c-0.403,0-0.729-0.327-0.729-0.729c0-0.403,0.327-0.729,0.729-0.729
				c0.403,0,0.729,0.326,0.729,0.729C717.856,71.497,717.53,71.824,717.127,71.824z M726.843,71.411c0,0.12-0.097,0.217-0.217,0.217
				h-2.9h-4.385c-0.12,0-0.217-0.097-0.217-0.217v-0.634c0-0.12,0.097-0.217,0.217-0.217h4.385h2.9c0.12,0,0.217,0.097,0.217,0.217
				V71.411z"/>
		</g>
	</g>
	<g>
		<g>
			<path fill="#47B1E4" d="M293.171,52.993c-0.19-0.611-0.468-1.183-0.818-1.703c-0.234-0.346-0.5-0.668-0.794-0.963
				c-0.441-0.441-0.946-0.82-1.499-1.12c-0.47-0.255-0.978-0.447-1.51-0.581V36.688c0.323-0.082,0.639-0.179,0.941-0.307
				c0.778-0.329,1.479-0.805,2.068-1.394c0.147-0.147,0.287-0.301,0.42-0.462c0.265-0.321,0.5-0.668,0.7-1.037
				c0.1-0.184,0.192-0.374,0.274-0.569c0.329-0.778,0.511-1.634,0.511-2.532c0-0.225-0.011-0.446-0.034-0.665
				c-0.111-1.093-0.493-2.107-1.077-2.972c-0.468-0.692-1.065-1.289-1.757-1.757c-1.038-0.701-2.29-1.111-3.637-1.111
				s-2.599,0.41-3.637,1.111c-0.692,0.468-1.289,1.065-1.757,1.757c-0.584,0.865-0.966,1.878-1.077,2.972
				c-0.022,0.219-0.034,0.44-0.034,0.665c0,0.898,0.182,1.754,0.511,2.532c0.082,0.194,0.174,0.384,0.274,0.569
				c0.2,0.369,0.435,0.716,0.7,1.037c0.133,0.161,0.273,0.315,0.42,0.462c0.589,0.589,1.289,1.065,2.068,1.394
				c0.302,0.128,0.618,0.226,0.941,0.307v11.938c-0.531,0.134-1.04,0.325-1.51,0.581c-0.553,0.3-1.057,0.678-1.499,1.12
				c-0.281,0.281-0.534,0.589-0.76,0.917l-11.952-4.426c0.024-0.23,0.039-0.462,0.039-0.698c0-3.593-2.912-6.505-6.505-6.505
				s-6.505,2.912-6.505,6.505c0,0.88,0.177,1.718,0.494,2.484L245.2,57.496c0.827,0.676,1.484,1.552,1.898,2.554l11.969-8.893
				c1.121,0.916,2.552,1.467,4.113,1.467c2.225,0,4.188-1.119,5.36-2.823l11.952,4.427c-0.001,0.011-0.004,0.022-0.005,0.033
				c-0.022,0.219-0.034,0.44-0.034,0.665c0,0.449,0.045,0.887,0.132,1.311c0.303,1.482,1.111,2.781,2.235,3.708
				s2.566,1.485,4.138,1.485s3.013-0.557,4.138-1.485s1.932-2.227,2.235-3.708c0.087-0.423,0.132-0.862,0.132-1.311
				c0-0.225-0.011-0.447-0.034-0.665C293.385,53.825,293.297,53.4,293.171,52.993z M263.18,49.443c-0.496,0-0.962-0.117-1.385-0.312
				c-1.008-0.466-1.734-1.419-1.892-2.558c-0.021-0.149-0.046-0.298-0.046-0.453c0-1.832,1.491-3.323,3.323-3.323
				c1.667,0,3.037,1.237,3.274,2.839c0.024,0.159,0.049,0.318,0.049,0.484c0,1.001-0.454,1.889-1.156,2.498
				C264.764,49.125,264.012,49.443,263.18,49.443z M283.636,30.388c0-1.832,1.491-3.323,3.323-3.323s3.323,1.49,3.323,3.323
				c0,1.253-0.705,2.333-1.732,2.899c-0.475,0.262-1.012,0.424-1.591,0.424c-0.579,0-1.116-0.162-1.591-0.424
				C284.341,32.721,283.636,31.641,283.636,30.388z M283.685,55.411c-0.024-0.159-0.049-0.318-0.049-0.484
				c0-1.001,0.454-1.89,1.157-2.499c0.177-0.154,0.369-0.286,0.575-0.4c0.475-0.261,1.011-0.424,1.591-0.424
				c0.579,0,1.116,0.162,1.591,0.424c1.027,0.566,1.732,1.646,1.732,2.899c0,1.832-1.491,3.323-3.323,3.323
				C285.292,58.25,283.921,57.013,283.685,55.411z"/>
			<path fill="#47B1E4" d="M245.2,57.496c-1.121-0.916-2.552-1.467-4.113-1.467c-3.592,0-6.505,2.912-6.505,6.505
				c0,3.592,2.912,6.505,6.505,6.505c1.505,0,2.887-0.516,3.99-1.375l14.049,10.959c-0.355,0.803-0.555,1.689-0.555,2.623
				c0,3.593,2.912,6.505,6.505,6.505h0c1.259,0,2.43-0.364,3.426-0.983c0.263-0.164,0.517-0.342,0.753-0.541
				c1.42-1.193,2.325-2.981,2.325-4.981c0-2.217-1.111-4.172-2.805-5.346c-0.089-0.062-0.182-0.118-0.274-0.175
				c-0.193-0.12-0.393-0.23-0.6-0.33c-0.428-0.207-0.881-0.37-1.354-0.482c-0.473-0.111-0.966-0.171-1.473-0.171l0,0h0
				c-1.506,0-2.888,0.516-3.99,1.375l-14.048-10.959c0.177-0.402,0.316-0.824,0.411-1.263c0.094-0.439,0.145-0.894,0.145-1.361
				c0-0.88-0.177-1.718-0.494-2.484C246.683,59.048,246.027,58.172,245.2,57.496z M268.397,81.247c0,1.832-1.491,3.323-3.323,3.323
				s-3.323-1.49-3.323-3.323c0-0.182,0.025-0.358,0.054-0.532c0.184-1.13,0.93-2.071,1.949-2.514c0.405-0.176,0.85-0.277,1.32-0.277
				C266.907,77.924,268.397,79.414,268.397,81.247z M244.41,62.534c0,0.183-0.025,0.359-0.054,0.533
				c-0.184,1.129-0.93,2.07-1.95,2.513c-0.405,0.176-0.85,0.276-1.319,0.276c-1.832,0-3.323-1.49-3.323-3.323
				s1.491-3.323,3.323-3.323c0.496,0,0.962,0.116,1.385,0.312c1.008,0.466,1.735,1.419,1.892,2.558
				C244.384,62.231,244.41,62.379,244.41,62.534z"/>
		</g>
	</g>
	<path fill="#47B1E4" d="M508.871,37.534h-24.439v-0.969l-0.015-0.24c-0.002-0.018-0.173-1.766,0.856-2.935
		c0.737-0.838,2.002-1.262,3.758-1.262h6.368l0.267-0.026c2.228-0.371,6.441-2.797,6.441-9.32h-3.775
		c0,4.448-2.561,5.406-3.18,5.572h-6.122c-2.889,0-5.107,0.856-6.592,2.544c-1.964,2.232-1.848,5.048-1.781,5.767v0.87h-25.574
		c-3.641,0-6.592,2.951-6.592,6.592V66.78c0,3.64,2.951,6.592,6.592,6.592h53.788c3.64,0,6.592-2.951,6.592-6.592V44.126
		C515.463,40.486,512.512,37.534,508.871,37.534z M495.193,44.994h5.351v5.351h-5.351V44.994z M503.301,52.615v5.351h-5.351v-5.351
		H503.301z M495.518,52.615v5.351h-5.351v-5.351H495.518z M487.41,44.994h5.351v5.351h-5.351V44.994z M487.734,52.615v5.351h-5.351
		v-5.351H487.734z M479.626,44.994h5.351v5.351h-5.351V44.994z M479.95,52.615v5.351h-5.351v-5.351H479.95z M471.843,44.994h5.351
		v5.351h-5.351V44.994z M472.167,52.615v5.351h-5.351v-5.351H472.167z M464.059,44.994h5.351v5.351h-5.351V44.994z M464.383,52.615
		v5.351h-5.351v-5.351H464.383z M456.275,44.994h5.351v5.351h-5.351V44.994z M461.627,65.588h-5.351v-5.351h5.351V65.588z
		 M500.545,65.588h-36.486v-5.351h36.486V65.588z M508.328,65.588h-5.351v-5.351h5.351V65.588z M508.328,50.345h-5.351v-5.351h5.351
		V50.345z"/>
	<path fill="#CCCCCC" d="M695.932,0c-5.724,0-11.238,0.897-16.416,2.545l-0.015-0.043L588.89,34.821L503.233,4.344
		c-1.994-0.854-4.054-1.581-6.164-2.193l-0.483-0.172l-0.011,0.031C491.929,0.71,487.038,0,481.977,0
		c-7.955,0-15.5,1.732-22.302,4.817L375.02,34.875L289.939,4.643C283.238,1.666,275.827,0,268.023,0
		c-7.954,0-15.498,1.731-22.299,4.816l-84.611,30.043L75.021,4.212c-1.791-0.754-3.635-1.404-5.518-1.964l-1.204-0.429l-0.028,0.079
		C63.743,0.668,58.985,0,54.068,0C24.207,0,0,24.207,0,54.067c0,29.861,24.207,54.068,54.068,54.068
		c4.924,0,9.689-0.67,14.222-1.904l0.009,0.025l0.388-0.138c2.396-0.672,4.725-1.499,6.974-2.48l85.389-30.362l85.308,30.329
		c6.635,2.906,13.959,4.529,21.665,4.529c5.039,0,9.91-0.704,14.538-1.993l0.041,0.115l2.499-0.891
		c0.752-0.25,1.497-0.514,2.234-0.796l87.662-31.245l87.848,31.315c0.554,0.21,1.115,0.406,1.677,0.598l2.858,1.019l0.043-0.12
		c4.633,1.293,9.51,1.999,14.556,1.999c7.773,0,15.157-1.653,21.836-4.606l85.104-30.246l85.894,30.57
		c1.892,0.804,3.845,1.491,5.84,2.079l0.361,0.128l0.008-0.024c4.738,1.357,9.736,2.099,14.911,2.099
		c29.861,0,54.068-24.207,54.068-54.068C750,24.207,725.793,0,695.932,0z M669.68,6.802c-16.48,9.173-27.66,26.707-27.805,46.871
		l-51.866-18.454L669.68,6.802z M639.689,54.442l-50.771,18.044l-50.7-18.044H639.689z M538.213,53.692l50.677-18.075l50.801,18.075
		H538.213z M587.772,35.219l-51.737,18.453c-0.143-19.947-11.088-37.314-27.276-46.566L587.772,35.219z M454.753,7.361
		c-15.945,9.314-26.692,26.547-26.833,46.312l-51.779-18.399L454.753,7.361z M425.74,54.442l-50.743,18.086L324.26,54.442H425.74z
		 M324.268,53.692l50.752-18.021l50.714,18.021H324.268z M373.899,35.273L322.08,53.673c-0.142-19.832-10.962-37.114-26.997-46.406
		L373.899,35.273z M240.799,7.36c-15.945,9.314-26.692,26.547-26.834,46.312l-51.733-18.415L240.799,7.36z M211.781,54.442
		l-50.732,18.039L110.31,54.442H211.781z M110.312,53.692l50.799-18.038l50.671,18.038H110.312z M159.992,35.256l-51.866,18.417
		c-0.144-19.989-11.134-37.388-27.378-46.625L159.992,35.256z M0.75,54.067C0.75,24.668,24.668,0.75,54.068,0.75
		c5.323,0,10.463,0.794,15.318,2.253l5.019,1.787c19.338,8.011,32.981,27.078,32.981,49.278c0,21.888-13.261,40.729-32.168,48.933
		l-6.651,2.365c-4.614,1.306-9.473,2.02-14.499,2.02C24.668,107.385,0.75,83.467,0.75,54.067z M80.991,100.947
		c16.11-9.272,26.991-26.597,27.134-46.485l51.804,18.417L80.991,100.947z M162.169,72.879l51.796-18.417
		c0.143,19.876,11.01,37.191,27.103,46.468L162.169,72.879z M253.158,105.261l0.01-0.03l-6.369-2.264
		c-18.867-8.22-32.095-27.041-32.095-48.9c0-21.614,12.936-40.252,31.465-48.614l7.794-2.768l-0.013-0.037
		c4.486-1.229,9.201-1.899,14.072-1.899c4.907,0,9.656,0.68,14.172,1.927l-0.003,0.009l7.304,2.595
		c18.733,8.278,31.845,27.024,31.845,48.786c0,22.813-14.406,42.318-34.596,49.916l-1.315,0.469
		c-5.459,1.892-11.312,2.933-17.407,2.933C262.864,107.385,257.88,106.634,253.158,105.261z M294.43,101.244
		c16.394-9.197,27.506-26.681,27.65-46.782l51.798,18.465L294.43,101.244z M376.114,72.927l51.805-18.465
		c0.145,20.113,11.269,37.606,27.679,46.799L376.114,72.927z M464.179,104.319l-0.748-0.267
		c-20.282-7.55-34.771-27.105-34.771-49.985c0-21.613,12.934-40.25,31.462-48.613l7.349-2.609l-0.023-0.066
		c4.623-1.312,9.492-2.029,14.53-2.029c5.199,0,10.222,0.762,14.976,2.156l5.839,2.077c19.086,8.125,32.502,27.066,32.502,49.084
		c0,21.793-13.149,40.563-31.925,48.823l-7.035,2.5l0.005,0.013c-4.573,1.281-9.386,1.981-14.362,1.981
		C475.738,107.385,469.749,106.298,464.179,104.319z M509.004,100.888c16.053-9.287,26.888-26.58,27.031-46.426l51.763,18.422
		L509.004,100.888z M590.038,72.885l51.837-18.423c0.143,19.97,11.113,37.354,27.331,46.599L590.038,72.885z M695.932,107.385
		c-5.267,0-10.353-0.78-15.162-2.209l-5.45-1.939c-19.194-8.076-32.706-27.073-32.706-49.169c0-29.399,23.918-53.318,53.318-53.318
		c29.4,0,53.318,23.918,53.318,53.318C749.25,83.467,725.332,107.385,695.932,107.385z"/>
</g>
</svg>
