<?xml version="1.0" encoding="utf-8"?>
<!-- Generator: Adobe Illustrator 17.0.0, SVG Export Plug-In . SVG Version: 6.00 Build 0)  -->
<!DOCTYPE svg PUBLIC "-//W3C//DTD SVG 1.1//EN" "http://www.w3.org/Graphics/SVG/1.1/DTD/svg11.dtd">
<svg version="1.1" id="Layer_1" xmlns="http://www.w3.org/2000/svg" xmlns:xlink="http://www.w3.org/1999/xlink" x="0px" y="0px"
	 width="1000px" height="563.163px" viewBox="0 0 1000 563.163" enable-background="new 0 0 1000 563.163" xml:space="preserve">
<g>
	<g>
		<g>
			<g>
				<g>
					<path fill="#2C436B" d="M500,159.168c33.036,0,64.094,12.865,87.454,36.225c23.36,23.36,36.225,54.418,36.225,87.454
						c0,33.036-12.865,64.094-36.225,87.454c-23.36,23.36-54.418,36.225-87.454,36.225s-64.094-12.865-87.454-36.225
						c-23.36-23.36-36.225-54.418-36.225-87.454c0-33.036,12.865-64.094,36.225-87.454C435.906,172.033,466.964,159.168,500,159.168
						 M500,158.649c-68.593,0-124.198,55.605-124.198,124.198c0,68.593,55.605,124.198,124.198,124.198
						s124.198-55.605,124.198-124.198C624.198,214.255,568.593,158.649,500,158.649L500,158.649z"/>
				</g>
			</g>
		</g>
		<rect x="250.14" y="283.03" fill="#2C436B" width="499.72" height="0.52"/>
		<rect x="0" y="406.645" fill="#2C436B" width="1000" height="0.52"/>
		<rect x="234.3" y="158.17" fill="#2C436B" width="531.399" height="0.521"/>
		<rect x="234.3" y="282.723" fill="#2C436B" width="531.399" height="0.521"/>
		<rect x="217.292" y="33.17" fill="#2C436B" width="565.415" height="0.521"/>
		<rect x="0" y="532.891" fill="#2C436B" width="1000" height="0.52"/>
		<rect x="500.362" y="32.809" fill="#2C436B" width="0.521" height="500.342"/>
		<rect x="623.978" y="32.809" fill="#2C436B" width="0.521" height="499.72"/>
		<rect x="375.502" y="32.809" fill="#2C436B" width="0.521" height="499.72"/>
		<rect x="249.88" y="0" fill="#2C436B" width="0.521" height="563.163"/>
		<rect x="749.558" y="0" fill="#2C436B" width="0.521" height="563.163"/>
		<path fill="#2C436B" d="M750.12,533.41H249.88V33.17h500.24V533.41z M250.4,532.891H749.6V33.69H250.4V532.891z"/>
		
			<rect x="146.645" y="283.03" transform="matrix(0.7071 0.7071 -0.7071 0.7071 346.7632 -270.5795)" fill="#2C436B" width="706.71" height="0.52"/>
		
			<rect x="499.74" y="-70.065" transform="matrix(0.708 0.7062 -0.7062 0.708 346.0278 -270.3755)" fill="#2C436B" width="0.52" height="706.71"/>
		
			<rect x="758.937" y="10.888" transform="matrix(0.708 0.7062 -0.7062 0.708 238.6651 -529.086)" fill="#2C436B" width="0.52" height="26.41"/>
		
			<rect x="745.992" y="542.228" transform="matrix(0.7071 0.7071 -0.7071 0.7071 605.9605 -377.9426)" fill="#2C436B" width="26.41" height="0.52"/>
		
			<rect x="240.543" y="529.283" transform="matrix(0.708 0.7062 -0.7062 0.708 453.3905 -11.6651)" fill="#2C436B" width="0.52" height="26.41"/>
		
			<rect x="227.598" y="23.833" transform="matrix(0.7071 0.7071 -0.7071 0.7071 87.566 -163.2165)" fill="#2C436B" width="26.41" height="0.52"/>
		
			<rect x="437.389" y="-44.137" transform="matrix(0.7052 0.709 -0.709 0.7052 285.2538 -245.322)" fill="#2C436B" width="0.521" height="529.04"/>
		
			<rect x="562.551" y="80.952" transform="matrix(0.708 0.7062 -0.7062 0.708 408.2816 -296.5742)" fill="#2C436B" width="0.52" height="529.054"/>
		<rect x="875.058" y="395.706" fill="#2C436B" width="0.521" height="150.449"/>
		<rect x="124.865" y="395.706" fill="#2C436B" width="0.521" height="150.449"/>
	</g>
	<g>
		<g>
			<path fill="#2C436B" d="M500,33.951c33.661,0,66.314,6.592,97.054,19.594c29.691,12.558,56.356,30.537,79.255,53.436
				c22.899,22.899,40.878,49.564,53.436,79.255c13.002,30.74,19.594,63.393,19.594,97.054s-6.592,66.314-19.594,97.054
				c-12.558,29.691-30.537,56.356-53.436,79.255c-22.899,22.899-49.564,40.877-79.255,53.436
				c-30.74,13.002-63.393,19.594-97.054,19.594s-66.314-6.592-97.054-19.594c-29.691-12.558-56.356-30.537-79.255-53.436
				c-22.899-22.899-40.877-49.564-53.436-79.255c-13.002-30.74-19.594-63.393-19.594-97.054s6.592-66.314,19.594-97.054
				c12.558-29.691,30.537-56.356,53.436-79.255c22.899-22.899,49.564-40.877,79.255-53.436
				C433.686,40.543,466.339,33.951,500,33.951 M500,33.43c-137.994,0-249.86,111.866-249.86,249.86S362.006,533.15,500,533.15
				s249.86-111.866,249.86-249.86S637.994,33.43,500,33.43L500,33.43z"/>
		</g>
	</g>
	<g>
		<g>
			<circle fill="#2C436B" cx="874.719" cy="282.982" r="1.5"/>
			<circle fill="#2C436B" cx="874.719" cy="407.045" r="1.5"/>
			<circle fill="#2C436B" cx="874.719" cy="532.528" r="1.5"/>
			<circle fill="#2C436B" cx="874.719" cy="158.301" r="1.5"/>
			<circle fill="#2C436B" cx="874.719" cy="33.619" r="1.5"/>
		</g>
		<g>
			<circle fill="#2C436B" cx="998.5" cy="282.982" r="1.5"/>
			<circle fill="#2C436B" cx="998.5" cy="407.045" r="1.5"/>
			<circle fill="#2C436B" cx="998.5" cy="532.528" r="1.5"/>
			<circle fill="#2C436B" cx="998.5" cy="158.301" r="1.5"/>
			<circle fill="#2C436B" cx="998.5" cy="33.619" r="1.5"/>
		</g>
		<g>
			<circle fill="#2C436B" cx="624.156" cy="282.982" r="1.5"/>
			<circle fill="#2C436B" cx="624.156" cy="407.045" r="1.5"/>
			<circle fill="#2C436B" cx="624.156" cy="532.528" r="1.5"/>
			<circle fill="#2C436B" cx="624.156" cy="158.301" r="1.5"/>
			<circle fill="#2C436B" cx="624.156" cy="33.619" r="1.5"/>
		</g>
		<g>
			<circle fill="#2C436B" cx="749.859" cy="282.982" r="1.5"/>
			<circle fill="#2C436B" cx="749.859" cy="407.045" r="1.5"/>
			<circle fill="#2C436B" cx="749.859" cy="532.528" r="1.5"/>
			<circle fill="#2C436B" cx="749.859" cy="158.301" r="1.5"/>
			<circle fill="#2C436B" cx="749.859" cy="33.619" r="1.5"/>
		</g>
		<g>
			<g>
				<circle fill="#2C436B" cx="500.596" cy="282.982" r="1.5"/>
				<circle fill="#2C436B" cx="500.596" cy="407.045" r="1.5"/>
				<circle fill="#2C436B" cx="500.596" cy="532.528" r="1.5"/>
				<circle fill="#2C436B" cx="500.596" cy="158.301" r="1.5"/>
				<circle fill="#2C436B" cx="500.596" cy="33.619" r="1.5"/>
			</g>
		</g>
		<g>
			<circle fill="#2C436B" cx="250.224" cy="282.982" r="1.5"/>
			<circle fill="#2C436B" cx="250.224" cy="407.045" r="1.5"/>
			<circle fill="#2C436B" cx="250.224" cy="532.528" r="1.5"/>
			<circle fill="#2C436B" cx="250.224" cy="158.301" r="1.5"/>
			<circle fill="#2C436B" cx="250.224" cy="33.619" r="1.5"/>
		</g>
		<g>
			<circle fill="#2C436B" cx="375.755" cy="282.982" r="1.5"/>
			<circle fill="#2C436B" cx="375.755" cy="407.045" r="1.5"/>
			<circle fill="#2C436B" cx="375.755" cy="532.528" r="1.5"/>
			<circle fill="#2C436B" cx="375.755" cy="158.301" r="1.5"/>
			<circle fill="#2C436B" cx="375.755" cy="33.619" r="1.5"/>
		</g>
		<g>
			<g>
				<circle fill="#2C436B" cx="125.193" cy="282.982" r="1.5"/>
				<circle fill="#2C436B" cx="125.193" cy="407.045" r="1.5"/>
				<circle fill="#2C436B" cx="125.193" cy="532.528" r="1.5"/>
				<circle fill="#2C436B" cx="125.193" cy="158.301" r="1.5"/>
				<circle fill="#2C436B" cx="125.193" cy="33.619" r="1.5"/>
			</g>
		</g>
		<g>
			<g>
				<circle fill="#2C436B" cx="1.5" cy="282.982" r="1.5"/>
				<circle fill="#2C436B" cx="1.5" cy="407.045" r="1.5"/>
				<circle fill="#2C436B" cx="1.5" cy="532.528" r="1.5"/>
				<circle fill="#2C436B" cx="1.5" cy="158.301" r="1.5"/>
				<circle fill="#2C436B" cx="1.5" cy="33.619" r="1.5"/>
			</g>
		</g>
	</g>
</g>
<g>
	<linearGradient id="SVGID_1_" gradientUnits="userSpaceOnUse" x1="660.1941" y1="251.3252" x2="728.814" y2="325.3422">
		<stop  offset="0" style="stop-color:#17B5FF"/>
		<stop  offset="0.4321" style="stop-color:#2CCCEF"/>
		<stop  offset="1" style="stop-color:#45E7DD"/>
	</linearGradient>
	<path fill="url(#SVGID_1_)" d="M688.244,243.1l-33.326,19.241v38.482l33.326,19.241l33.326-19.241v-38.482L688.244,243.1z
		 M688.244,252.042l21.204,12.242l-21.204,12.242l-21.204-12.242L688.244,252.042z M713.193,295.986l-0.007,0.004v0.007
		l-24.941,14.4l-24.941-14.4v-0.007l-0.007-0.004v-19.135l0.007,0.004v-4.189l24.941,14.406l24.941-14.406v4.189l0.007-0.004
		V295.986z"/>
	<linearGradient id="SVGID_2_" gradientUnits="userSpaceOnUse" x1="538.9" y1="254.4311" x2="600.5807" y2="323.822">
		<stop  offset="0" style="stop-color:#17B5FF"/>
		<stop  offset="0.4321" style="stop-color:#2CCCEF"/>
		<stop  offset="1" style="stop-color:#45E7DD"/>
	</linearGradient>
	<path fill="url(#SVGID_2_)" d="M599.422,277.402h-32.203v-40.003l-40.573,48.362h32.203v40.004L599.422,277.402z M567.226,285.779
		h14.233l-14.233,16.965V285.779z M558.841,277.383h-14.233l14.233-16.965V277.383z"/>
	<g>
		<linearGradient id="SVGID_3_" gradientUnits="userSpaceOnUse" x1="406.9574" y1="245.2239" x2="478.6613" y2="333.119">
			<stop  offset="0" style="stop-color:#17B5FF"/>
			<stop  offset="0.4321" style="stop-color:#2CCCEF"/>
			<stop  offset="1" style="stop-color:#45E7DD"/>
		</linearGradient>
		<path fill="url(#SVGID_3_)" d="M470.17,269.692l-7.735,4.25c0.751,2.415,1.156,4.981,1.156,7.64
			c0,14.208-11.559,25.768-25.768,25.768c-7.857,0-14.899-3.539-19.63-9.102l-7.741,4.253c6.296,8.226,16.211,13.535,27.37,13.535
			c19.028,0,34.454-15.425,34.454-34.454C472.277,277.403,471.532,273.398,470.17,269.692z"/>
		<linearGradient id="SVGID_4_" gradientUnits="userSpaceOnUse" x1="408.4049" y1="244.043" x2="480.1089" y2="331.9381">
			<stop  offset="0" style="stop-color:#17B5FF"/>
			<stop  offset="0.4321" style="stop-color:#2CCCEF"/>
			<stop  offset="1" style="stop-color:#45E7DD"/>
		</linearGradient>
		<path fill="url(#SVGID_4_)" d="M412.055,281.582c0-14.208,11.559-25.768,25.768-25.768c7.857,0,14.9,3.539,19.63,9.102
			l7.741-4.253c-6.296-8.226-16.211-13.536-27.37-13.536c-19.029,0-34.454,15.426-34.454,34.454c0,4.179,0.745,8.184,2.108,11.889
			l7.735-4.25C412.46,286.807,412.055,284.241,412.055,281.582z"/>
	</g>
	<linearGradient id="SVGID_5_" gradientUnits="userSpaceOnUse" x1="288.856" y1="246.7131" x2="362.873" y2="351.5704">
		<stop  offset="0" style="stop-color:#17B5FF"/>
		<stop  offset="0.4321" style="stop-color:#2CCCEF"/>
		<stop  offset="1" style="stop-color:#45E7DD"/>
	</linearGradient>
	<path fill="url(#SVGID_5_)" d="M335.525,281.581c9.526-7.847,14.707-15.46,12.463-19.559c-1.058-1.932-3.635-2.849-7.276-2.849
		c-4.226,0-9.891,1.244-16.27,3.564c-2.11-12.374-6.233-20.778-10.973-20.778c-4.741,0-8.864,8.404-10.973,20.778
		c-6.379-2.32-12.044-3.564-16.27-3.564c-3.641,0-6.218,0.917-7.276,2.849c-2.244,4.099,2.937,11.712,12.463,19.559
		c-9.526,7.847-14.707,15.46-12.463,19.559c1.058,1.932,3.635,2.849,7.276,2.849c4.226,0,9.891-1.244,16.27-3.563
		c2.11,12.374,6.233,20.778,10.973,20.778c4.741,0,8.864-8.404,10.973-20.778c6.379,2.319,12.044,3.563,16.27,3.563
		c3.641,0,6.218-0.917,7.276-2.849C350.233,297.041,345.051,289.428,335.525,281.581z M340.712,264.601
		c1.092,0,1.806,0.107,2.246,0.214c-0.409,1.298-1.954,4.193-6.272,8.448c-1.642,1.617-3.526,3.261-5.572,4.896
		c-1.698-1.242-3.496-2.477-5.378-3.694c-0.122-2.139-0.296-4.219-0.522-6.223C331.308,265.928,336.792,264.601,340.712,264.601z
		 M320.437,285.654c-1.381,2.358-3.918,3.952-6.836,3.999c-0.044,0.001-0.087,0.007-0.132,0.007c-0.045,0-0.088-0.006-0.132-0.007
		c-2.918-0.047-5.455-1.641-6.836-3.999c-0.013-0.021-0.026-0.042-0.038-0.063c-0.678-1.182-1.072-2.549-1.072-4.01
		s0.393-2.827,1.072-4.009c0.012-0.021,0.026-0.042,0.038-0.063c1.381-2.357,3.918-3.951,6.836-3.999
		c0.044-0.001,0.087-0.007,0.132-0.007c0.045,0,0.088,0.006,0.132,0.007c2.918,0.047,5.455,1.641,6.836,3.999
		c0.013,0.021,0.026,0.042,0.038,0.063c0.678,1.182,1.072,2.549,1.072,4.009s-0.394,2.827-1.072,4.01
		C320.463,285.612,320.449,285.633,320.437,285.654z M309.23,257.246c1.569-5.823,3.32-8.568,4.239-9.546
		c0.919,0.978,2.671,3.723,4.239,9.547c0.621,2.304,1.138,4.848,1.56,7.541c-1.895,0.813-3.835,1.718-5.799,2.695
		c-1.964-0.977-3.904-1.882-5.799-2.695C308.092,262.093,308.609,259.55,309.23,257.246z M290.252,273.264
		c-4.319-4.255-5.863-7.15-6.272-8.448c0.44-0.107,1.154-0.214,2.246-0.214c3.921,0,9.404,1.327,15.498,3.641
		c-0.225,2.004-0.4,4.084-0.522,6.223c-1.882,1.217-3.68,2.452-5.378,3.694C293.778,276.524,291.893,274.881,290.252,273.264z
		 M286.226,298.562c-1.092,0-1.806-0.108-2.246-0.214c0.409-1.298,1.954-4.193,6.272-8.448c1.642-1.617,3.526-3.26,5.572-4.896
		c1.698,1.242,3.496,2.477,5.378,3.694c0.122,2.139,0.296,4.219,0.522,6.223C295.63,297.235,290.146,298.562,286.226,298.562z
		 M317.708,305.917c-1.568,5.823-3.32,8.568-4.239,9.546c-0.919-0.978-2.671-3.723-4.239-9.546c-0.621-2.304-1.138-4.848-1.56-7.541
		c1.895-0.813,3.835-1.718,5.799-2.695c1.964,0.977,3.904,1.882,5.799,2.695C318.846,301.069,318.329,303.613,317.708,305.917z
		 M340.712,298.562c-3.921,0-9.404-1.327-15.498-3.641c0.225-2.004,0.4-4.084,0.522-6.223c1.882-1.217,3.68-2.452,5.378-3.694
		c2.046,1.636,3.93,3.279,5.572,4.896c4.319,4.255,5.863,7.15,6.272,8.448C342.519,298.454,341.804,298.562,340.712,298.562z"/>
</g>
</svg>
