<?xml version="1.0" encoding="utf-8"?>
<!-- Generator: Adobe Illustrator 17.0.0, SVG Export Plug-In . SVG Version: 6.00 Build 0)  -->
<!DOCTYPE svg PUBLIC "-//W3C//DTD SVG 1.1//EN" "http://www.w3.org/Graphics/SVG/1.1/DTD/svg11.dtd">
<svg version="1.1" id="Layer_1" xmlns="http://www.w3.org/2000/svg" xmlns:xlink="http://www.w3.org/1999/xlink" x="0px" y="0px"
	 width="1000px" height="88.366px" viewBox="0 0 1000 88.366" enable-background="new 0 0 1000 88.366" xml:space="preserve">
<g>
	<g>
		<g>
			<g>
				<rect x="125.193" y="43.341" fill="#F8F8F8" width="749.697" height="0.918"/>
			</g>
		</g>
		<g>
			<g>
				<circle fill="#F8F8F8" cx="874.719" cy="43.799" r="1.5"/>
			</g>
			<g>
				<circle fill="#F8F8F8" cx="998.5" cy="43.799" r="1.5"/>
			</g>
			<g>
				<circle fill="#F8F8F8" cx="624.156" cy="43.799" r="1.5"/>
			</g>
			<g>
				<circle fill="#F8F8F8" cx="749.859" cy="43.799" r="1.5"/>
			</g>
			<g>
				<g>
					<circle fill="#F8F8F8" cx="500.596" cy="43.799" r="1.5"/>
				</g>
			</g>
			<g>
				<circle fill="#F8F8F8" cx="250.224" cy="43.799" r="1.5"/>
			</g>
			<g>
				<circle fill="#F8F8F8" cx="375.755" cy="43.799" r="1.5"/>
			</g>
			<g>
				<g>
					<circle fill="#F8F8F8" cx="125.193" cy="43.799" r="1.5"/>
				</g>
			</g>
			<g>
				<g>
					<circle fill="#F8F8F8" cx="1.5" cy="43.799" r="1.5"/>
				</g>
			</g>
		</g>
	</g>
	<path fill="#FFFFFF" d="M686.762,5.701l-33.326,19.241v38.482l33.326,19.241l33.326-19.241V24.942L686.762,5.701z M686.762,14.644
		l21.204,12.242l-21.204,12.243l-21.204-12.243L686.762,14.644z M711.71,58.587l-0.008,0.004v0.007l-24.941,14.4l-24.941-14.4
		v-0.007l-0.007-0.004V39.452l0.007,0.004v-4.189l24.941,14.406l24.941-14.406v4.189l0.008-0.004V58.587z"/>
	<path opacity="0.8" fill="#FFFFFF" d="M597.939,40.003h-32.203V0l-40.573,48.362h32.203v40.004L597.939,40.003z M565.743,48.381
		h14.233l-14.233,16.965V48.381z M557.359,39.985h-14.233l14.233-16.965V39.985z"/>
	<g opacity="0.6">
		<path fill="#FFFFFF" d="M468.687,32.293l-7.735,4.25c0.751,2.415,1.156,4.981,1.156,7.64c0,14.208-11.559,25.768-25.768,25.768
			c-7.857,0-14.899-3.539-19.63-9.102l-7.741,4.253c6.296,8.226,16.211,13.535,27.37,13.535c19.028,0,34.454-15.425,34.454-34.454
			C470.795,40.004,470.05,36,468.687,32.293z"/>
		<path fill="#FFFFFF" d="M410.573,44.183c0-14.208,11.559-25.768,25.768-25.768c7.857,0,14.9,3.539,19.63,9.102l7.741-4.253
			c-6.297-8.226-16.211-13.536-27.37-13.536c-19.029,0-34.454,15.426-34.454,34.454c0,4.179,0.745,8.183,2.108,11.889l7.735-4.25
			C410.978,49.408,410.573,46.842,410.573,44.183z"/>
	</g>
	<path opacity="0.4" fill="#FFFFFF" d="M334.043,44.183c9.526-7.847,14.707-15.46,12.463-19.559
		c-1.058-1.932-3.635-2.849-7.276-2.849c-4.226,0-9.891,1.244-16.27,3.564c-2.11-12.374-6.233-20.778-10.973-20.778
		c-4.741,0-8.864,8.404-10.973,20.778c-6.379-2.32-12.044-3.564-16.27-3.564c-3.641,0-6.218,0.917-7.276,2.849
		c-2.244,4.099,2.937,11.712,12.463,19.559c-9.526,7.847-14.707,15.46-12.463,19.559c1.058,1.932,3.635,2.849,7.276,2.849
		c4.226,0,9.891-1.244,16.27-3.563c2.11,12.374,6.233,20.778,10.973,20.778c4.741,0,8.864-8.404,10.973-20.778
		c6.379,2.319,12.044,3.563,16.27,3.563c3.641,0,6.218-0.917,7.276-2.849C348.75,59.643,343.569,52.03,334.043,44.183z
		 M339.23,27.203c1.092,0,1.806,0.107,2.246,0.214c-0.409,1.298-1.954,4.193-6.272,8.448c-1.642,1.617-3.526,3.261-5.572,4.896
		c-1.698-1.242-3.496-2.477-5.378-3.694c-0.122-2.139-0.296-4.219-0.522-6.223C329.825,28.529,335.309,27.203,339.23,27.203z
		 M318.954,48.255c-1.381,2.358-3.918,3.952-6.836,3.999c-0.044,0.001-0.087,0.007-0.132,0.007c-0.045,0-0.088-0.006-0.132-0.007
		c-2.918-0.047-5.455-1.641-6.836-3.999c-0.013-0.021-0.026-0.042-0.038-0.063c-0.678-1.182-1.072-2.549-1.072-4.01
		s0.393-2.827,1.072-4.009c0.012-0.021,0.026-0.042,0.038-0.063c1.381-2.357,3.918-3.951,6.836-3.999
		c0.044-0.001,0.087-0.007,0.132-0.007c0.045,0,0.088,0.006,0.132,0.007c2.918,0.047,5.455,1.641,6.836,3.999
		c0.013,0.021,0.026,0.042,0.038,0.063c0.678,1.182,1.072,2.549,1.072,4.009s-0.394,2.827-1.072,4.01
		C318.98,48.214,318.967,48.234,318.954,48.255z M307.747,19.847c1.569-5.823,3.32-8.568,4.239-9.546
		c0.919,0.978,2.671,3.723,4.239,9.547c0.621,2.304,1.138,4.848,1.56,7.541c-1.895,0.813-3.835,1.718-5.799,2.695
		c-1.964-0.977-3.904-1.882-5.799-2.695C306.609,24.695,307.126,22.151,307.747,19.847z M288.769,35.865
		c-4.319-4.255-5.863-7.15-6.272-8.448c0.44-0.107,1.154-0.214,2.246-0.214c3.921,0,9.404,1.327,15.498,3.641
		c-0.225,2.004-0.4,4.084-0.522,6.223c-1.882,1.217-3.68,2.452-5.378,3.694C292.296,39.126,290.411,37.483,288.769,35.865z
		 M284.743,61.163c-1.092,0-1.806-0.108-2.246-0.214c0.409-1.298,1.954-4.193,6.272-8.448c1.642-1.617,3.526-3.26,5.572-4.896
		c1.698,1.242,3.496,2.477,5.378,3.694c0.122,2.139,0.296,4.219,0.522,6.223C294.147,59.837,288.664,61.163,284.743,61.163z
		 M316.226,68.519c-1.568,5.823-3.32,8.568-4.239,9.546c-0.919-0.978-2.671-3.723-4.239-9.546c-0.621-2.304-1.138-4.848-1.56-7.541
		c1.895-0.813,3.835-1.718,5.799-2.695c1.964,0.977,3.904,1.882,5.799,2.695C317.363,63.671,316.846,66.215,316.226,68.519z
		 M339.23,61.163c-3.921,0-9.404-1.327-15.498-3.641c0.225-2.004,0.4-4.084,0.522-6.223c1.882-1.217,3.68-2.452,5.378-3.694
		c2.046,1.636,3.93,3.279,5.572,4.896c4.319,4.255,5.863,7.15,6.272,8.448C341.036,61.056,340.321,61.163,339.23,61.163z"/>
</g>
</svg>
