<?xml version="1.0" encoding="utf-8"?>
<!-- Generator: Adobe Illustrator 17.0.0, SVG Export Plug-In . SVG Version: 6.00 Build 0)  -->
<!DOCTYPE svg PUBLIC "-//W3C//DTD SVG 1.1//EN" "http://www.w3.org/Graphics/SVG/1.1/DTD/svg11.dtd">
<svg version="1.1" id="Layer_1" xmlns="http://www.w3.org/2000/svg" xmlns:xlink="http://www.w3.org/1999/xlink" x="0px" y="0px"
	 width="1000px" height="200.929px" viewBox="0 0 1000 200.929" enable-background="new 0 0 1000 200.929" xml:space="preserve">
<g>
	<g>
		<g>
			<g>
				<rect x="125" y="100.024" fill="#F8F8F8" width="750" height="0.918"/>
				<rect x="500.135" y="0.929" fill="#F8F8F8" width="0.975" height="200"/>
				<rect x="623.75" y="0.929" fill="#F8F8F8" width="0.975" height="200"/>
				<rect x="375.275" y="0.929" fill="#F8F8F8" width="0.975" height="200"/>
				<rect x="249.681" y="0.929" fill="#F8F8F8" width="0.919" height="200"/>
				<rect x="749.359" y="0.929" fill="#F8F8F8" width="0.919" height="200"/>
				<g>
					
						<rect x="487.056" y="131.273" transform="matrix(0.7071 0.7071 -0.7071 0.7071 248.7485 -337.0669)" fill="#F8F8F8" width="88.388" height="0.919"/>
					
						<rect x="392.07" y="18.63" transform="matrix(0.7071 0.7071 -0.7071 0.7071 136.1074 -290.4103)" fill="#F8F8F8" width="53.073" height="0.919"/>
					
						<rect x="424.4" y="68.709" transform="matrix(0.7071 0.7071 -0.7071 0.7071 186.1825 -311.1506)" fill="#F8F8F8" width="88.571" height="0.919"/>
					
						<rect x="554.766" y="181.194" transform="matrix(0.7071 0.7071 -0.7071 0.7071 298.6699 -357.745)" fill="#F8F8F8" width="52.811" height="0.919"/>
					
						<rect x="549.619" y="-20.418" transform="matrix(0.7066 0.7076 -0.7076 0.7066 197.0744 -374.4667)" fill="#F8F8F8" width="0.919" height="141.644"/>
					
						<rect x="449.619" y="79.804" transform="matrix(0.7066 0.7076 -0.7076 0.7066 238.4957 -274.3604)" fill="#F8F8F8" width="0.919" height="141.199"/>
					
						<rect x="455.752" y="-7.501" transform="matrix(0.706 0.7082 -0.7082 0.706 147.6252 -317.4633)" fill="#F8F8F8" width="0.918" height="53.181"/>
					
						<rect x="355.343" y="3.969" transform="matrix(0.706 0.7082 -0.7082 0.706 188.9261 -216.9608)" fill="#F8F8F8" width="0.918" height="230.241"/>
					
						<rect x="643.369" y="-33.362" transform="matrix(0.7066 0.7076 -0.7076 0.7066 246.6966 -431.6382)" fill="#F8F8F8" width="0.919" height="230.032"/>
					
						<rect x="543.369" y="155.249" transform="matrix(0.7066 0.7076 -0.7076 0.7066 288.118 -331.532)" fill="#F8F8F8" width="0.919" height="52.811"/>
				</g>
			</g>
			<g>
				<g>
					<circle fill="#F8F8F8" cx="874.719" cy="100.175" r="1.5"/>
				</g>
				<g>
					<circle fill="#F8F8F8" cx="998.5" cy="100.175" r="1.5"/>
				</g>
				<g>
					<circle fill="#F8F8F8" cx="624.156" cy="100.175" r="1.5"/>
				</g>
				<g>
					<circle fill="#F8F8F8" cx="749.859" cy="100.175" r="1.5"/>
				</g>
				<g>
					<g>
						<circle fill="#F8F8F8" cx="500.596" cy="100.175" r="1.5"/>
					</g>
				</g>
				<g>
					<circle fill="#F8F8F8" cx="250.224" cy="100.175" r="1.5"/>
				</g>
				<g>
					<circle fill="#F8F8F8" cx="375.755" cy="100.175" r="1.5"/>
				</g>
				<g>
					<g>
						<circle fill="#F8F8F8" cx="125.193" cy="100.175" r="1.5"/>
					</g>
				</g>
				<g>
					<g>
						<circle fill="#F8F8F8" cx="1.5" cy="100.175" r="1.5"/>
					</g>
				</g>
			</g>
		</g>
		<g>
			<g>
				<path fill="#F8F8F8" d="M686.762,139.57l-33.786-19.505V81.052l0.23-0.132l33.556-19.373l33.785,19.505v39.014l-0.23,0.132
					L686.762,139.57z M653.895,119.534l32.867,18.976l32.866-18.976V81.583l-32.866-18.976l-32.867,18.976V119.534z
					 M686.762,129.903l-25.401-14.661l-0.007-0.279v-19.9l0.007,0.004v-4.219l25.401,14.672l25.4-14.672l0.008,24.399l-0.238,0.124
					L686.762,129.903z M662.273,114.704l24.489,14.139l24.489-14.157l-0.008-22.246l-24.481,14.141L662.28,92.44v4.158l-0.007-0.004
					L662.273,114.704z M686.762,96.034l-22.124-12.772l22.124-12.772l22.123,12.772L686.762,96.034z M666.476,83.262l20.286,11.712
					l20.285-11.712L686.762,71.55L666.476,83.262z"/>
				<path fill="#F8F8F8" d="M556.906,146.004v-40.807h-32.728l42.018-50.085V95.92h32.728L556.906,146.004z M526.148,104.279h31.677
					v39.199l39.129-46.641h-31.677v-39.2L526.148,104.279z M565.284,122.985v-18.687h15.677L565.284,122.985z M566.203,105.216
					v15.243l12.788-15.243H566.203z M557.818,96.819h-15.677l15.677-18.687V96.819z M544.111,95.902h12.788V80.658L544.111,95.902z"
					/>
				<g>
					<path fill="#F8F8F8" d="M436.34,135.472c-10.954,0-21.063-4.999-27.735-13.715l-0.325-0.425l8.538-4.69l0.243,0.285
						c4.832,5.682,11.859,8.94,19.28,8.94c13.955,0,25.308-11.354,25.308-25.309c0-2.557-0.382-5.081-1.135-7.503l-0.112-0.358
						l8.532-4.688l0.184,0.502c1.417,3.854,2.136,7.908,2.136,12.048C471.254,119.81,455.592,135.472,436.34,135.472z
						 M409.663,121.621c6.498,8.226,16.19,12.933,26.677,12.933c18.745,0,33.995-15.25,33.995-33.995
						c0-3.852-0.639-7.626-1.899-11.228l-6.937,3.812c0.708,2.399,1.067,4.893,1.067,7.416c0,14.462-11.766,26.227-26.227,26.227
						c-7.567,0-14.737-3.268-19.735-8.979L409.663,121.621z"/>
					<path fill="#F8F8F8" d="M403.747,113.109l-0.184-0.502c-1.417-3.854-2.136-7.908-2.136-12.048
						c0-19.251,15.662-34.913,34.914-34.913c10.955,0,21.064,4.999,27.735,13.716l0.325,0.425l-8.538,4.689l-0.243-0.285
						c-4.831-5.682-11.858-8.94-19.28-8.94c-13.955,0-25.308,11.354-25.308,25.309c0,2.559,0.382,5.083,1.135,7.503l0.112,0.358
						L403.747,113.109z M436.34,66.564c-18.745,0-33.995,15.25-33.995,33.995c0,3.852,0.639,7.626,1.898,11.228l6.937-3.812
						c-0.708-2.398-1.068-4.892-1.068-7.416c0-14.462,11.766-26.227,26.227-26.227c7.567,0,14.738,3.268,19.735,8.979l6.942-3.813
						C456.521,71.271,446.828,66.564,436.34,66.564z"/>
				</g>
				<path fill="#F8F8F8" d="M311.986,140.64c-4.829,0-9.05-7.695-11.332-20.619c-6.247,2.229-11.739,3.404-15.911,3.404
					c-3.917,0-6.573-1.067-7.679-3.087c-2.278-4.159,2.258-11.534,12.146-19.779c-9.888-8.245-14.424-15.62-12.146-19.779
					c1.106-2.021,3.761-3.088,7.679-3.088c4.17,0,9.663,1.176,15.911,3.405c2.282-12.925,6.503-20.62,11.332-20.62
					s9.05,7.695,11.332,20.62c6.248-2.229,11.741-3.405,15.911-3.405c3.918,0,6.573,1.067,7.679,3.088
					c2.278,4.159-2.258,11.534-12.146,19.779c9.888,8.245,14.424,15.62,12.146,19.779c-1.105,2.02-3.761,3.087-7.679,3.087
					c-4.172,0-9.665-1.176-15.911-3.404C321.037,132.944,316.815,140.64,311.986,140.64z M301.374,118.783l0.092,0.543
					c2.112,12.39,6.242,20.396,10.521,20.396s8.408-8.006,10.521-20.396l0.092-0.543l0.517,0.188
					c6.361,2.312,11.933,3.535,16.113,3.535c3.562,0,5.938-0.903,6.873-2.61c2.051-3.744-2.683-11.019-12.352-18.983l-0.431-0.354
					l0.431-0.354c9.669-7.965,14.403-15.239,12.352-18.983c-0.935-1.708-3.312-2.611-6.873-2.611c-4.179,0-9.75,1.223-16.113,3.536
					l-0.517,0.188l-0.092-0.543c-2.112-12.39-6.242-20.396-10.521-20.396s-8.408,8.007-10.521,20.396l-0.092,0.543l-0.517-0.188
					c-6.363-2.313-11.935-3.536-16.113-3.536c-3.561,0-5.938,0.903-6.873,2.611c-2.051,3.744,2.683,11.019,12.352,18.983
					l0.431,0.354l-0.431,0.354c-9.669,7.965-14.403,15.239-12.352,18.983c0.935,1.707,3.312,2.61,6.873,2.61
					c4.181,0,9.752-1.223,16.113-3.535L301.374,118.783z M311.986,135.111l-0.335-0.356c-0.567-0.603-2.556-3.088-4.348-9.741
					c-0.605-2.243-1.133-4.798-1.571-7.59l-0.055-0.353l0.328-0.141c1.824-0.782,3.767-1.685,5.776-2.684l0.205-0.102l0.205,0.102
					c2.011,1,3.954,1.902,5.775,2.684l0.328,0.141l-0.055,0.353c-0.438,2.795-0.966,5.35-1.57,7.59
					c-1.792,6.653-3.781,9.139-4.348,9.741L311.986,135.111z M306.697,117.633c0.421,2.623,0.923,5.024,1.494,7.143
					c1.469,5.452,3.029,7.968,3.796,8.955c0.767-0.987,2.327-3.503,3.796-8.955c0.57-2.115,1.072-4.517,1.493-7.143
					c-1.679-0.727-3.456-1.554-5.289-2.462C310.154,116.078,308.377,116.905,306.697,117.633z M339.229,117.998
					c-3.922,0-9.337-1.27-15.661-3.671l-0.333-0.127l0.04-0.354c0.224-1.994,0.399-4.08,0.52-6.197l0.013-0.232l0.196-0.127
					c1.87-1.209,3.672-2.447,5.355-3.68l0.284-0.207l0.275,0.22c2.135,1.707,4.022,3.364,5.607,4.927
					c4.932,4.86,6.137,7.84,6.388,8.637l0.148,0.469l-0.477,0.116C340.965,117.922,340.173,117.998,339.229,117.998z
					 M324.228,113.594c5.996,2.249,11.313,3.486,15.002,3.486c0.705,0,1.237-0.047,1.627-0.104
					c-0.489-1.162-1.926-3.782-5.975-7.772c-1.496-1.473-3.265-3.034-5.263-4.645c-1.557,1.131-3.209,2.265-4.919,3.375
					C324.585,109.862,324.427,111.764,324.228,113.594z M284.743,117.998c-0.944,0-1.736-0.076-2.355-0.228l-0.477-0.116
					l0.147-0.468c0.251-0.798,1.455-3.776,6.388-8.638c1.585-1.562,3.472-3.22,5.607-4.927l0.275-0.22l0.284,0.207
					c1.685,1.233,3.487,2.472,5.356,3.68l0.196,0.127l0.013,0.232c0.121,2.115,0.295,4.2,0.52,6.197l0.04,0.354l-0.333,0.127
					C294.08,116.729,288.665,117.998,284.743,117.998z M283.117,116.976c0.39,0.058,0.922,0.104,1.626,0.104
					c3.689,0,9.006-1.237,15.002-3.486c-0.2-1.832-0.358-3.733-0.471-5.66c-1.709-1.109-3.361-2.243-4.919-3.375
					c-1.999,1.61-3.768,3.172-5.263,4.645C285.042,113.194,283.604,115.814,283.117,116.976z M311.986,109.096l-0.102-0.005
					c-3.04-0.051-5.741-1.631-7.262-4.228c-0.781-1.357-1.173-2.823-1.173-4.305s0.392-2.947,1.132-4.238
					c1.562-2.663,4.263-4.243,7.266-4.292l0.156-0.007l0.089,0.004c3.037,0.052,5.737,1.632,7.259,4.229
					c0.781,1.358,1.173,2.824,1.173,4.305s-0.392,2.946-1.132,4.238c-1.562,2.663-4.263,4.243-7.266,4.292L311.986,109.096z
					 M311.986,92.481l-0.039,0.462c-2.765,0.048-5.175,1.458-6.532,3.776c-0.698,1.211-1.047,2.519-1.047,3.84
					s0.349,2.629,1.01,3.781c1.394,2.377,3.804,3.787,6.483,3.831l0.121,0.466l0.004-0.459l0.132-0.007
					c2.672-0.044,5.082-1.454,6.439-3.772c0.698-1.212,1.047-2.52,1.047-3.84s-0.349-2.628-1.01-3.781
					c-1.394-2.377-3.804-3.787-6.483-3.831L311.986,92.481v0.459V92.481z M329.644,97.715l-0.284-0.207
					c-1.684-1.232-3.486-2.471-5.355-3.68l-0.196-0.127l-0.013-0.232c-0.121-2.117-0.296-4.203-0.52-6.197l-0.04-0.354l0.333-0.127
					c6.324-2.401,11.739-3.671,15.661-3.671c0.94,0,1.733,0.076,2.354,0.227l0.478,0.115l-0.148,0.469
					c-0.251,0.798-1.454,3.776-6.388,8.638c-1.584,1.562-3.471,3.22-5.607,4.928L329.644,97.715z M324.699,93.184
					c1.71,1.11,3.362,2.244,4.919,3.375c2-1.611,3.769-3.173,5.263-4.646c4.05-3.99,5.487-6.609,5.975-7.771
					c-0.391-0.058-0.924-0.104-1.627-0.104c-3.689,0-9.006,1.237-15.002,3.486C324.427,89.354,324.585,91.255,324.699,93.184z
					 M294.329,97.715l-0.275-0.22c-2.137-1.708-4.023-3.366-5.608-4.928c-4.935-4.862-6.137-7.841-6.387-8.638l-0.148-0.469
					l0.478-0.115c0.621-0.15,1.413-0.227,2.354-0.227c3.922,0,9.337,1.27,15.661,3.671l0.333,0.127l-0.04,0.354
					c-0.225,1.997-0.399,4.082-0.52,6.197l-0.013,0.232l-0.196,0.127c-1.869,1.208-3.671,2.446-5.356,3.68L294.329,97.715z
					 M283.117,84.142c0.488,1.161,1.924,3.78,5.975,7.771c1.494,1.473,3.264,3.034,5.263,4.646c1.558-1.132,3.21-2.266,4.919-3.375
					c0.113-1.927,0.271-3.828,0.471-5.66c-5.996-2.249-11.313-3.486-15.002-3.486C284.04,84.037,283.507,84.084,283.117,84.142z
					 M311.986,86.972l-0.205-0.102c-2.005-0.996-3.948-1.899-5.776-2.685l-0.328-0.141l0.055-0.353
					c0.438-2.792,0.966-5.346,1.571-7.589c1.791-6.651,3.781-9.139,4.348-9.742l0.335-0.356l0.335,0.356
					c0.567,0.604,2.557,3.091,4.348,9.742c0.604,2.24,1.132,4.794,1.57,7.589l0.055,0.353l-0.328,0.141
					c-1.825,0.784-3.769,1.688-5.775,2.685L311.986,86.972z M306.697,83.484c1.685,0.73,3.461,1.558,5.29,2.463
					c1.83-0.906,3.607-1.733,5.289-2.463c-0.421-2.626-0.923-5.026-1.493-7.142c-1.468-5.451-3.029-7.968-3.796-8.955
					c-0.767,0.987-2.328,3.504-3.796,8.955C307.62,78.46,307.118,80.86,306.697,83.484z"/>
			</g>
		</g>
	</g>
</g>
</svg>
