<?xml version="1.0" encoding="utf-8"?>
<!-- Generator: Adobe Illustrator 17.0.0, SVG Export Plug-In . SVG Version: 6.00 Build 0)  -->
<!DOCTYPE svg PUBLIC "-//W3C//DTD SVG 1.1//EN" "http://www.w3.org/Graphics/SVG/1.1/DTD/svg11.dtd">
<svg version="1.1" id="Layer_1" xmlns="http://www.w3.org/2000/svg" xmlns:xlink="http://www.w3.org/1999/xlink" x="0px" y="0px"
	 width="745.685px" height="483.819px" viewBox="0 0 745.685 483.819" enable-background="new 0 0 745.685 483.819"
	 xml:space="preserve">
<g>
	<g>
		<g>
			<path fill="#2C436B" d="M745.685,213.256c0-6.627-5.373-12-12-12H12c-6.627,0-12,5.373-12,12v21.375h745.685V213.256z"/>
			<polygon fill="#2C436B" points="745.677,483.819 744.677,483.819 744.677,235.13 1.02,235.13 1.02,483.819 0.02,483.819 
				0.02,234.13 745.677,234.13 			"/>
		</g>
		<g>
			<circle fill="#1F2E47" cx="17.978" cy="218.134" r="4.812"/>
			<circle fill="#1F2E47" cx="35.198" cy="218.134" r="4.812"/>
			<circle fill="#1F2E47" cx="52.419" cy="218.134" r="4.812"/>
		</g>
		<rect x="7.982" y="243.238" fill="#151C2D" width="729.721" height="240.581"/>
		<path fill="#2C436B" d="M688.973,322.988H368.428V284.08h320.546V322.988z M369.178,322.238h319.046V284.83H369.178V322.238z"/>
		<polygon fill="#2C436B" points="407.335,483.819 406.585,483.819 406.585,343.883 369.177,343.883 369.177,483.819 
			368.427,483.819 368.427,343.133 407.335,343.133 		"/>
		<g>
			<path fill="#2C436B" d="M596.304,415.378H422.443v-62.957h173.862V415.378z M423.193,414.628h172.362v-61.457H423.193V414.628z"
				/>
			<path fill="#2C436B" d="M596.304,353.171H422.443v-8.957h173.862V353.171z M423.193,352.421h172.362v-7.457H423.193V352.421z"/>
		</g>
		<g>
			<polygon fill="#2C436B" points="596.304,483.819 595.554,483.819 595.554,439.748 423.193,439.748 423.193,483.819 
				422.443,483.819 422.443,438.998 596.304,438.998 			"/>
			<path fill="#2C436B" d="M596.304,439.748H422.443v-8.957h173.862V439.748z M423.193,438.998h172.362v-7.457H423.193V438.998z"/>
		</g>
		<path fill="#2C436B" d="M393.212,375.673h-11.525c-2.637,0-4.783-2.146-4.783-4.783v-11.525c0-2.638,2.146-4.783,4.783-4.783
			h11.525c2.638,0,4.783,2.146,4.783,4.783v11.525C397.995,373.527,395.85,375.673,393.212,375.673z M381.687,355.332
			c-2.224,0-4.033,1.809-4.033,4.033v11.525c0,2.224,1.809,4.033,4.033,4.033h11.525c2.224,0,4.033-1.809,4.033-4.033v-11.525
			c0-2.224-1.809-4.033-4.033-4.033H381.687z"/>
		<path fill="#2C436B" d="M393.212,405.62h-11.525c-2.637,0-4.783-2.146-4.783-4.783v-11.525c0-2.638,2.146-4.783,4.783-4.783
			h11.525c2.638,0,4.783,2.146,4.783,4.783v11.525C397.995,403.474,395.85,405.62,393.212,405.62z M381.687,385.278
			c-2.224,0-4.033,1.809-4.033,4.033v11.525c0,2.224,1.809,4.033,4.033,4.033h11.525c2.224,0,4.033-1.809,4.033-4.033v-11.525
			c0-2.224-1.809-4.033-4.033-4.033H381.687z"/>
		<path fill="#2C436B" d="M393.212,435.566h-11.525c-2.637,0-4.783-2.146-4.783-4.783v-11.525c0-2.638,2.146-4.783,4.783-4.783
			h11.525c2.638,0,4.783,2.146,4.783,4.783v11.525C397.995,433.421,395.85,435.566,393.212,435.566z M381.687,415.225
			c-2.224,0-4.033,1.809-4.033,4.033v11.525c0,2.224,1.809,4.033,4.033,4.033h11.525c2.224,0,4.033-1.809,4.033-4.033v-11.525
			c0-2.224-1.809-4.033-4.033-4.033H381.687z"/>
		<path fill="#2C436B" d="M393.212,465.514h-11.525c-2.637,0-4.783-2.146-4.783-4.783v-11.525c0-2.638,2.146-4.783,4.783-4.783
			h11.525c2.638,0,4.783,2.146,4.783,4.783v11.525C397.995,463.368,395.85,465.514,393.212,465.514z M381.687,445.172
			c-2.224,0-4.033,1.809-4.033,4.033v11.525c0,2.224,1.809,4.033,4.033,4.033h11.525c2.224,0,4.033-1.809,4.033-4.033v-11.525
			c0-2.224-1.809-4.033-4.033-4.033H381.687z"/>
		<g>
			<path fill="#2C436B" d="M688.939,361.834h-69.127v-8.957h69.127V361.834z M620.562,361.084h67.627v-7.457h-67.627V361.084z"/>
			<path fill="#2C436B" d="M688.939,384.275h-69.127v-8.957h69.127V384.275z M620.562,383.525h67.627v-7.457h-67.627V383.525z"/>
			<path fill="#2C436B" d="M688.939,406.716h-69.127v-8.957h69.127V406.716z M620.562,405.966h67.627v-7.457h-67.627V405.966z"/>
		</g>
		<g>
			<path fill="#2C436B" d="M688.939,448.41h-69.127v-8.957h69.127V448.41z M620.562,447.66h67.627v-7.457h-67.627V447.66z"/>
			<path fill="#2C436B" d="M688.939,470.851h-69.127v-8.957h69.127V470.851z M620.562,470.101h67.627v-7.457h-67.627V470.101z"/>
		</g>
		<g>
			<path fill="#2C436B" d="M50.49,313.29v-0.689l5.733-2.847v0.818l-4.901,2.38l4.901,2.353v0.819L50.49,313.29z"/>
			<path fill="#2C436B" d="M57.379,316.709c0-0.39,0.325-0.715,0.715-0.715s0.715,0.325,0.715,0.715
				c0,0.377-0.325,0.715-0.715,0.715S57.379,317.086,57.379,316.709z M57.692,314.863l-0.208-6.24h1.222l-0.208,6.24H57.692z"/>
			<path fill="#2C436B" d="M65.115,317.294v-0.936c-0.468,0.637-1.235,1.092-2.119,1.092c-1.638,0-2.795-1.248-2.795-3.289
				c0-2.016,1.157-3.303,2.795-3.303c0.845,0,1.612,0.416,2.119,1.105v-3.341h0.975v8.671H65.115z M65.115,315.578v-2.834
				c-0.338-0.546-1.105-1.015-1.872-1.015c-1.274,0-2.028,1.04-2.028,2.432c0,1.391,0.754,2.418,2.028,2.418
				C64.009,316.579,64.776,316.124,65.115,315.578z"/>
			<path fill="#2C436B" d="M67.675,314.148c0-1.819,1.196-3.289,3.107-3.289s3.107,1.47,3.107,3.289c0,1.82-1.196,3.303-3.107,3.303
				S67.675,315.968,67.675,314.148z M72.863,314.148c0-1.273-0.741-2.418-2.08-2.418c-1.339,0-2.08,1.145-2.08,2.418
				c0,1.287,0.741,2.432,2.08,2.432C72.121,316.579,72.863,315.435,72.863,314.148z"/>
			<path fill="#2C436B" d="M75.111,314.148c0-1.858,1.261-3.289,3.133-3.289c1.144,0,1.82,0.469,2.301,1.093l-0.65,0.585
				c-0.416-0.572-0.949-0.807-1.599-0.807c-1.326,0-2.171,1.027-2.171,2.418c0,1.392,0.845,2.432,2.171,2.432
				c0.65,0,1.183-0.26,1.599-0.819l0.65,0.599c-0.481,0.623-1.157,1.092-2.301,1.092C76.372,317.45,75.111,316.007,75.111,314.148z"
				/>
			<path fill="#2C436B" d="M82.118,315.981v-4.107h-1.04v-0.858h1.04v-1.716h0.988v1.716h1.274v0.858h-1.274v3.899
				c0,0.469,0.208,0.807,0.624,0.807c0.286,0,0.533-0.13,0.663-0.273l0.286,0.741c-0.247,0.234-0.598,0.403-1.157,0.403
				C82.586,317.45,82.118,316.917,82.118,315.981z"/>
			<path fill="#2C436B" d="M85.55,318.867c0.143,0.064,0.377,0.104,0.533,0.104c0.429,0,0.715-0.143,0.936-0.663l0.416-0.948
				l-2.626-6.345h1.066l2.08,5.148l2.093-5.148h1.053l-3.146,7.554c-0.377,0.909-1.014,1.261-1.846,1.273
				c-0.208,0-0.533-0.039-0.702-0.091L85.55,318.867z"/>
			<path fill="#2C436B" d="M93.09,316.345v3.342h-0.975v-8.672h0.975v0.937c0.455-0.638,1.235-1.093,2.119-1.093
				c1.651,0,2.795,1.248,2.795,3.289c0,2.028-1.144,3.303-2.795,3.303C94.351,317.45,93.61,317.034,93.09,316.345z M96.977,314.148
				c0-1.391-0.754-2.418-2.015-2.418c-0.767,0-1.534,0.455-1.872,1.001v2.834c0.338,0.547,1.105,1.015,1.872,1.015
				C96.223,316.579,96.977,315.539,96.977,314.148z"/>
			<path fill="#2C436B" d="M99.187,314.148c0-1.819,1.3-3.289,3.094-3.289c1.898,0,3.016,1.482,3.016,3.367v0.247h-5.07
				c0.078,1.184,0.897,2.171,2.249,2.171c0.729,0,1.443-0.285,1.95-0.806l0.468,0.637c-0.637,0.624-1.482,0.976-2.496,0.976
				C100.526,317.45,99.187,316.111,99.187,314.148z M102.268,311.665c-1.339,0-2.002,1.131-2.054,2.08h4.121
				C104.322,312.821,103.698,311.665,102.268,311.665z"/>
			<path fill="#2C436B" d="M114.488,317.294v-4.134c0-1.118-0.559-1.431-1.417-1.431c-0.754,0-1.482,0.469-1.846,0.976v4.589h-0.975
				v-8.671h0.975v3.302c0.429-0.533,1.287-1.066,2.236-1.066c1.313,0,2.002,0.638,2.002,2.002v4.434H114.488z"/>
			<path fill="#2C436B" d="M117.607,315.981v-4.107h-1.04v-0.858h1.04v-1.716h0.988v1.716h1.274v0.858h-1.274v3.899
				c0,0.469,0.208,0.807,0.624,0.807c0.286,0,0.533-0.13,0.663-0.273l0.286,0.741c-0.247,0.234-0.598,0.403-1.157,0.403
				C118.075,317.45,117.607,316.917,117.607,315.981z"/>
			<path fill="#2C436B" d="M128.813,317.294v-4.264c0-0.794-0.338-1.301-1.157-1.301c-0.65,0-1.339,0.455-1.664,0.962v4.603h-0.975
				v-4.264c0-0.794-0.325-1.301-1.157-1.301c-0.637,0-1.313,0.469-1.651,0.976v4.589h-0.975v-6.279h0.975v0.91
				c0.273-0.403,1.105-1.066,2.041-1.066c0.949,0,1.495,0.521,1.677,1.17c0.351-0.571,1.196-1.17,2.106-1.17
				c1.144,0,1.755,0.638,1.755,1.898v4.537H128.813z"/>
			<path fill="#2C436B" d="M131.738,317.294v-8.671h0.975v8.671H131.738z"/>
			<path fill="#2C436B" d="M134.065,316.124v-0.819l4.901-2.353l-4.901-2.38v-0.818l5.733,2.847v0.689L134.065,316.124z"/>
			<path fill="#2C436B" d="M50.49,335.59V334.9l5.733-2.847v0.818l-4.901,2.38l4.901,2.353v0.819L50.49,335.59z"/>
			<path fill="#2C436B" d="M61.825,339.594v-4.134c0-1.118-0.559-1.431-1.417-1.431c-0.754,0-1.482,0.468-1.846,0.976v4.589h-0.975
				v-8.671h0.975v3.302c0.429-0.533,1.287-1.066,2.236-1.066c1.313,0,2.002,0.638,2.002,2.002v4.434H61.825z"/>
			<path fill="#2C436B" d="M64.945,338.28v-4.107h-1.04v-0.858h1.04v-1.716h0.988v1.716h1.274v0.858h-1.274v3.899
				c0,0.469,0.208,0.807,0.624,0.807c0.286,0,0.533-0.13,0.663-0.273l0.286,0.741c-0.247,0.234-0.598,0.403-1.157,0.403
				C65.413,339.75,64.945,339.217,64.945,338.28z"/>
			<path fill="#2C436B" d="M76.151,339.594v-4.265c0-0.793-0.338-1.3-1.157-1.3c-0.65,0-1.339,0.455-1.664,0.962v4.603h-0.975
				v-4.265c0-0.793-0.325-1.3-1.157-1.3c-0.637,0-1.313,0.468-1.651,0.976v4.589h-0.975v-6.279h0.975v0.91
				c0.273-0.403,1.105-1.066,2.041-1.066c0.949,0,1.495,0.521,1.677,1.17c0.351-0.571,1.196-1.17,2.106-1.17
				c1.144,0,1.755,0.638,1.755,1.898v4.537H76.151z"/>
			<path fill="#2C436B" d="M79.076,339.594v-8.671h0.975v8.671H79.076z"/>
			<path fill="#2C436B" d="M81.403,338.424v-0.819l4.901-2.353l-4.901-2.38v-0.818l5.733,2.847v0.689L81.403,338.424z"/>
			<path fill="#2C436B" d="M50.49,357.89V357.2l5.733-2.847v0.818l-4.901,2.38l4.901,2.353v0.819L50.49,357.89z"/>
			<path fill="#2C436B" d="M57.574,361.894v-8.671h0.975v3.341c0.507-0.689,1.274-1.105,2.119-1.105
				c1.651,0,2.795,1.287,2.795,3.303c0,2.041-1.157,3.289-2.795,3.289c-0.884,0-1.651-0.455-2.119-1.092v0.936H57.574z
				 M60.434,361.179c1.261,0,2.015-1.027,2.015-2.418c0-1.392-0.754-2.432-2.015-2.432c-0.78,0-1.547,0.469-1.885,1.015v2.847
				C58.887,360.736,59.655,361.179,60.434,361.179z"/>
			<path fill="#2C436B" d="M64.685,358.747c0-1.819,1.196-3.289,3.107-3.289s3.107,1.47,3.107,3.289c0,1.82-1.196,3.303-3.107,3.303
				S64.685,360.567,64.685,358.747z M69.873,358.747c0-1.273-0.741-2.418-2.08-2.418c-1.339,0-2.08,1.145-2.08,2.418
				c0,1.287,0.741,2.432,2.08,2.432C69.132,361.179,69.873,360.034,69.873,358.747z"/>
			<path fill="#2C436B" d="M77.036,361.894v-0.936c-0.468,0.637-1.235,1.092-2.119,1.092c-1.638,0-2.795-1.248-2.795-3.289
				c0-2.016,1.157-3.303,2.795-3.303c0.845,0,1.612,0.416,2.119,1.105v-3.341h0.975v8.671H77.036z M77.036,360.178v-2.834
				c-0.338-0.546-1.105-1.015-1.872-1.015c-1.274,0-2.028,1.04-2.028,2.432c0,1.391,0.754,2.418,2.028,2.418
				C75.931,361.179,76.698,360.724,77.036,360.178z"/>
			<path fill="#2C436B" d="M79.766,363.467c0.143,0.064,0.377,0.104,0.533,0.104c0.429,0,0.715-0.143,0.936-0.663l0.416-0.948
				l-2.626-6.345h1.066l2.08,5.148l2.093-5.148h1.053l-3.146,7.554c-0.377,0.909-1.014,1.261-1.846,1.273
				c-0.208,0-0.533-0.039-0.702-0.091L79.766,363.467z"/>
			<path fill="#2C436B" d="M85.733,360.724v-0.819l4.901-2.353l-4.901-2.38v-0.818l5.733,2.847v0.689L85.733,360.724z"/>
			<path fill="#2C436B" d="M50.49,402.49v-0.689l5.733-2.847v0.818l-4.901,2.38l4.901,2.353v0.819L50.49,402.49z"/>
			<path fill="#2C436B" d="M62.125,406.494v-0.937c-0.468,0.638-1.235,1.093-2.119,1.093c-1.638,0-2.795-1.248-2.795-3.289
				c0-2.016,1.157-3.303,2.795-3.303c0.845,0,1.612,0.416,2.119,1.105v-3.341H63.1v8.671H62.125z M62.125,404.778v-2.834
				c-0.338-0.547-1.105-1.015-1.872-1.015c-1.274,0-2.028,1.04-2.028,2.432c0,1.391,0.754,2.418,2.028,2.418
				C61.02,405.779,61.786,405.324,62.125,404.778z"/>
			<path fill="#2C436B" d="M64.881,398.668c0-0.364,0.299-0.663,0.663-0.663c0.364,0,0.65,0.299,0.65,0.663s-0.286,0.649-0.65,0.649
				C65.179,399.317,64.881,399.032,64.881,398.668z M65.05,406.494v-6.279h0.975v6.279H65.05z"/>
			<path fill="#2C436B" d="M69.652,406.494l-2.613-6.279h1.066l2.08,5.148l2.093-5.148h1.053l-2.613,6.279H69.652z"/>
			<path fill="#2C436B" d="M77.542,398.668c0-0.364,0.299-0.663,0.663-0.663c0.364,0,0.65,0.299,0.65,0.663s-0.286,0.649-0.65,0.649
				C77.841,399.317,77.542,399.032,77.542,398.668z M77.711,406.494v-6.279h0.975v6.279H77.711z"/>
			<path fill="#2C436B" d="M85.186,406.494v-0.937c-0.468,0.638-1.235,1.093-2.119,1.093c-1.638,0-2.795-1.248-2.795-3.289
				c0-2.016,1.157-3.303,2.795-3.303c0.845,0,1.612,0.416,2.119,1.105v-3.341h0.975v8.671H85.186z M85.186,404.778v-2.834
				c-0.338-0.547-1.105-1.015-1.872-1.015c-1.274,0-2.028,1.04-2.028,2.432c0,1.391,0.754,2.418,2.028,2.418
				C84.081,405.779,84.848,405.324,85.186,404.778z"/>
			<path fill="#2C436B" d="M87.513,401.242v-0.689h5.733v0.689H87.513z M87.513,403.751v-0.689h5.733v0.689H87.513z"/>
			<path fill="#2C436B" d="M94.676,401.138c0,0-0.351-2.665-0.351-2.847c0-0.325,0.26-0.599,0.585-0.599
				c0.338,0,0.598,0.273,0.598,0.599c0,0.182-0.351,2.847-0.351,2.847H94.676z M96.561,401.138c0,0-0.351-2.665-0.351-2.847
				c0-0.325,0.26-0.599,0.598-0.599c0.325,0,0.585,0.273,0.585,0.599c0,0.182-0.351,2.847-0.351,2.847H96.561z"/>
			<path fill="#2C436B" d="M98.706,403.348c0-1.858,1.261-3.289,3.133-3.289c1.144,0,1.82,0.469,2.301,1.093l-0.65,0.585
				c-0.416-0.572-0.949-0.807-1.599-0.807c-1.326,0-2.171,1.027-2.171,2.418c0,1.392,0.845,2.432,2.171,2.432
				c0.65,0,1.183-0.26,1.599-0.819l0.65,0.598c-0.481,0.625-1.157,1.093-2.301,1.093C99.967,406.65,98.706,405.207,98.706,403.348z"
				/>
			<path fill="#2C436B" d="M105.154,403.348c0-1.819,1.196-3.289,3.107-3.289s3.107,1.47,3.107,3.289
				c0,1.82-1.196,3.303-3.107,3.303S105.154,405.168,105.154,403.348z M110.341,403.348c0-1.273-0.741-2.418-2.08-2.418
				c-1.339,0-2.08,1.145-2.08,2.418c0,1.287,0.741,2.432,2.08,2.432C109.6,405.779,110.341,404.635,110.341,403.348z"/>
			<path fill="#2C436B" d="M117.205,406.494v-4.108c0-1.118-0.572-1.456-1.417-1.456c-0.767,0-1.482,0.468-1.859,0.976v4.589h-0.975
				v-6.279h0.975v0.91c0.442-0.533,1.3-1.066,2.249-1.066c1.3,0,1.989,0.663,1.989,2.028v4.407H117.205z"/>
			<path fill="#2C436B" d="M120.324,405.181v-4.107h-1.04v-0.858h1.04v-1.716h0.988v1.716h1.274v0.858h-1.274v3.899
				c0,0.469,0.208,0.807,0.624,0.807c0.286,0,0.533-0.13,0.663-0.273l0.286,0.741c-0.247,0.234-0.598,0.403-1.157,0.403
				C120.793,406.65,120.324,406.117,120.324,405.181z"/>
			<path fill="#2C436B" d="M127.878,406.494v-0.715c-0.507,0.572-1.235,0.871-2.08,0.871c-1.053,0-2.184-0.715-2.184-2.08
				c0-1.417,1.118-2.067,2.184-2.067c0.858,0,1.573,0.273,2.08,0.845v-1.131c0-0.832-0.676-1.312-1.586-1.312
				c-0.754,0-1.365,0.26-1.924,0.871l-0.455-0.677c0.676-0.702,1.482-1.04,2.509-1.04c1.339,0,2.431,0.599,2.431,2.119v4.316
				H127.878z M127.878,405.168v-1.196c-0.377-0.507-1.04-0.767-1.716-0.767c-0.923,0-1.56,0.572-1.56,1.365
				c0,0.806,0.637,1.378,1.56,1.378C126.838,405.948,127.5,405.689,127.878,405.168z"/>
			<path fill="#2C436B" d="M130.646,398.668c0-0.364,0.299-0.663,0.663-0.663c0.364,0,0.65,0.299,0.65,0.663
				s-0.286,0.649-0.65,0.649C130.945,399.317,130.646,399.032,130.646,398.668z M130.815,406.494v-6.279h0.975v6.279H130.815z"/>
			<path fill="#2C436B" d="M137.991,406.494v-4.108c0-1.118-0.572-1.456-1.417-1.456c-0.767,0-1.482,0.468-1.859,0.976v4.589h-0.975
				v-6.279h0.975v0.91c0.442-0.533,1.3-1.066,2.249-1.066c1.3,0,1.989,0.663,1.989,2.028v4.407H137.991z"/>
			<path fill="#2C436B" d="M140.552,403.348c0-1.819,1.3-3.289,3.094-3.289c1.898,0,3.016,1.482,3.016,3.367v0.247h-5.07
				c0.078,1.184,0.897,2.171,2.25,2.171c0.728,0,1.443-0.286,1.95-0.806l0.468,0.637c-0.637,0.624-1.482,0.976-2.496,0.976
				C141.891,406.65,140.552,405.312,140.552,403.348z M143.633,400.865c-1.339,0-2.002,1.131-2.054,2.08h4.121
				C145.687,402.023,145.063,400.865,143.633,400.865z"/>
			<path fill="#2C436B" d="M148.235,406.494v-6.279h0.975v1.001c0.507-0.65,1.235-1.144,2.093-1.144v1.001
				c-0.117-0.014-0.234-0.026-0.377-0.026c-0.611,0-1.43,0.494-1.716,1.001v4.446H148.235z"/>
			<path fill="#2C436B" d="M152.603,401.138c0,0-0.351-2.665-0.351-2.847c0-0.325,0.26-0.599,0.585-0.599
				c0.338,0,0.598,0.273,0.598,0.599c0,0.182-0.351,2.847-0.351,2.847H152.603z M154.488,401.138c0,0-0.351-2.665-0.351-2.847
				c0-0.325,0.26-0.599,0.598-0.599c0.325,0,0.585,0.273,0.585,0.599c0,0.182-0.351,2.847-0.351,2.847H154.488z"/>
			<path fill="#2C436B" d="M159.83,405.662l0.494-0.702c0.416,0.481,1.209,0.897,2.067,0.897c0.962,0,1.495-0.455,1.495-1.079
				c0-1.521-3.887-0.585-3.887-2.912c0-0.988,0.832-1.808,2.327-1.808c1.079,0,1.833,0.403,2.327,0.91l-0.455,0.676
				c-0.377-0.454-1.053-0.793-1.872-0.793c-0.858,0-1.391,0.43-1.391,0.988c0,1.365,3.887,0.468,3.887,2.912
				c0,1.053-0.845,1.898-2.457,1.898C161.325,406.65,160.468,406.325,159.83,405.662z"/>
			<path fill="#2C436B" d="M166.603,405.181v-4.107h-1.04v-0.858h1.04v-1.716h0.988v1.716h1.274v0.858h-1.274v3.899
				c0,0.469,0.208,0.807,0.624,0.807c0.286,0,0.533-0.13,0.663-0.273l0.286,0.741c-0.247,0.234-0.598,0.403-1.157,0.403
				C167.072,406.65,166.603,406.117,166.603,405.181z"/>
			<path fill="#2C436B" d="M170.035,408.067c0.143,0.064,0.377,0.104,0.533,0.104c0.429,0,0.715-0.143,0.936-0.663l0.416-0.948
				l-2.626-6.345h1.066l2.08,5.148l2.093-5.148h1.053l-3.146,7.554c-0.377,0.91-1.014,1.261-1.846,1.273
				c-0.208,0-0.533-0.039-0.702-0.091L170.035,408.067z"/>
			<path fill="#2C436B" d="M176.6,406.494v-8.671h0.975v8.671H176.6z"/>
			<path fill="#2C436B" d="M179.161,403.348c0-1.819,1.3-3.289,3.094-3.289c1.898,0,3.016,1.482,3.016,3.367v0.247h-5.07
				c0.078,1.184,0.897,2.171,2.25,2.171c0.728,0,1.443-0.286,1.95-0.806l0.468,0.637c-0.637,0.624-1.482,0.976-2.496,0.976
				C180.5,406.65,179.161,405.312,179.161,403.348z M182.242,400.865c-1.339,0-2.002,1.131-2.054,2.08h4.121
				C184.296,402.023,183.672,400.865,182.242,400.865z"/>
			<path fill="#2C436B" d="M186.246,401.242v-0.689h5.733v0.689H186.246z M186.246,403.751v-0.689h5.733v0.689H186.246z"/>
			<path fill="#2C436B" d="M193.409,401.138c0,0-0.351-2.665-0.351-2.847c0-0.325,0.26-0.599,0.585-0.599
				c0.338,0,0.598,0.273,0.598,0.599c0,0.182-0.351,2.847-0.351,2.847H193.409z M195.294,401.138c0,0-0.351-2.665-0.351-2.847
				c0-0.325,0.26-0.599,0.598-0.599c0.325,0,0.585,0.273,0.585,0.599c0,0.182-0.351,2.847-0.351,2.847H195.294z"/>
			<path fill="#2C436B" d="M203.237,406.494l-1.638-5.044l-1.638,5.044h-0.975l-2.002-6.279h1.014l1.534,5.005l1.651-5.005h0.845
				l1.638,5.005l1.534-5.005h1.027l-2.002,6.279H203.237z"/>
			<path fill="#2C436B" d="M207.176,398.668c0-0.364,0.299-0.663,0.663-0.663c0.364,0,0.65,0.299,0.65,0.663
				s-0.286,0.649-0.65,0.649C207.474,399.317,207.176,399.032,207.176,398.668z M207.344,406.494v-6.279h0.975v6.279H207.344z"/>
			<path fill="#2C436B" d="M214.82,406.494v-0.937c-0.468,0.638-1.235,1.093-2.119,1.093c-1.638,0-2.795-1.248-2.795-3.289
				c0-2.016,1.157-3.303,2.795-3.303c0.845,0,1.612,0.416,2.119,1.105v-3.341h0.975v8.671H214.82z M214.82,404.778v-2.834
				c-0.338-0.547-1.105-1.015-1.872-1.015c-1.274,0-2.028,1.04-2.028,2.432c0,1.391,0.754,2.418,2.028,2.418
				C213.714,405.779,214.481,405.324,214.82,404.778z"/>
			<path fill="#2C436B" d="M217.939,405.181v-4.107h-1.04v-0.858h1.04v-1.716h0.988v1.716h1.274v0.858h-1.274v3.899
				c0,0.469,0.208,0.807,0.624,0.807c0.286,0,0.533-0.13,0.663-0.273l0.286,0.741c-0.247,0.234-0.598,0.403-1.157,0.403
				C218.407,406.65,217.939,406.117,217.939,405.181z"/>
			<path fill="#2C436B" d="M225.817,406.494v-4.134c0-1.118-0.559-1.431-1.417-1.431c-0.754,0-1.482,0.468-1.846,0.976v4.589h-0.975
				v-8.671h0.975v3.302c0.429-0.533,1.287-1.066,2.236-1.066c1.313,0,2.002,0.638,2.002,2.002v4.434H225.817z"/>
			<path fill="#2C436B" d="M228.547,400.839c0-0.39,0.325-0.715,0.715-0.715s0.715,0.325,0.715,0.715
				c0,0.377-0.325,0.715-0.715,0.715S228.547,401.216,228.547,400.839z M228.547,405.909c0-0.39,0.325-0.715,0.715-0.715
				s0.715,0.325,0.715,0.715s-0.325,0.715-0.715,0.715S228.547,406.299,228.547,405.909z"/>
			<path fill="#2C436B" d="M231.55,405.259l0.663-0.728c0.572,0.741,1.339,1.157,2.392,1.157c1.183,0,2.002-0.807,2.002-1.859
				c0-1.145-0.819-1.872-1.989-1.872c-0.754,0-1.417,0.247-2.002,0.806l-0.793-0.272v-4.667h5.304v0.962h-4.225v3.016
				c0.429-0.416,1.157-0.78,2.028-0.78c1.456,0,2.769,0.976,2.769,2.77c0,1.755-1.352,2.86-3.094,2.86
				C233.149,406.65,232.199,406.117,231.55,405.259z"/>
			<path fill="#2C436B" d="M239.025,402.165c0-2.119,0.936-4.473,3.315-4.473c2.366,0,3.315,2.354,3.315,4.473
				c0,2.106-0.949,4.485-3.315,4.485C239.961,406.65,239.025,404.272,239.025,402.165z M244.55,402.165
				c0-1.729-0.559-3.51-2.21-3.51c-1.651,0-2.21,1.78-2.21,3.51c0,1.729,0.559,3.523,2.21,3.523
				C243.991,405.689,244.55,403.894,244.55,402.165z"/>
			<path fill="#2C436B" d="M246.981,402.165c0-2.119,0.936-4.473,3.315-4.473c2.366,0,3.315,2.354,3.315,4.473
				c0,2.106-0.949,4.485-3.315,4.485C247.917,406.65,246.981,404.272,246.981,402.165z M252.506,402.165
				c0-1.729-0.559-3.51-2.21-3.51c-1.651,0-2.21,1.78-2.21,3.51c0,1.729,0.559,3.523,2.21,3.523
				C251.947,405.689,252.506,403.894,252.506,402.165z"/>
			<path fill="#2C436B" d="M256.224,405.545v3.341h-0.975v-8.671h0.975v0.937c0.455-0.638,1.235-1.093,2.119-1.093
				c1.651,0,2.795,1.248,2.795,3.289c0,2.028-1.144,3.303-2.795,3.303C257.485,406.65,256.744,406.234,256.224,405.545z
				 M260.111,403.348c0-1.391-0.754-2.418-2.015-2.418c-0.767,0-1.534,0.455-1.872,1.001v2.834c0.338,0.547,1.105,1.015,1.872,1.015
				C259.357,405.779,260.111,404.739,260.111,403.348z"/>
			<path fill="#2C436B" d="M266.286,406.494l-1.898-2.574l-1.885,2.574h-1.118l2.405-3.224l-2.275-3.056h1.131l1.742,2.393
				l1.755-2.393h1.118l-2.275,3.056l2.418,3.224H266.286z"/>
			<path fill="#2C436B" d="M268.613,401.138c0,0-0.351-2.665-0.351-2.847c0-0.325,0.26-0.599,0.585-0.599
				c0.338,0,0.598,0.273,0.598,0.599c0,0.182-0.351,2.847-0.351,2.847H268.613z M270.498,401.138c0,0-0.351-2.665-0.351-2.847
				c0-0.325,0.26-0.599,0.598-0.599c0.325,0,0.585,0.273,0.585,0.599c0,0.182-0.351,2.847-0.351,2.847H270.498z"/>
			<path fill="#2C436B" d="M272.409,405.324v-0.819l4.901-2.353l-4.901-2.38v-0.818l5.733,2.847v0.689L272.409,405.324z"/>
			<path fill="#2C436B" d="M50.49,447.09V446.4l5.733-2.847v0.818l-4.901,2.38l4.901,2.353v0.819L50.49,447.09z"/>
			<path fill="#2C436B" d="M62.125,451.094v-0.937c-0.468,0.638-1.235,1.093-2.119,1.093c-1.638,0-2.795-1.248-2.795-3.289
				c0-2.016,1.157-3.303,2.795-3.303c0.845,0,1.612,0.416,2.119,1.105v-3.341H63.1v8.671H62.125z M62.125,449.378v-2.834
				c-0.338-0.547-1.105-1.015-1.872-1.015c-1.274,0-2.028,1.04-2.028,2.432c0,1.391,0.754,2.418,2.028,2.418
				C61.02,450.379,61.786,449.924,62.125,449.378z"/>
			<path fill="#2C436B" d="M64.881,443.268c0-0.364,0.299-0.663,0.663-0.663c0.364,0,0.65,0.299,0.65,0.663s-0.286,0.649-0.65,0.649
				C65.179,443.917,64.881,443.632,64.881,443.268z M65.05,451.094v-6.279h0.975v6.279H65.05z"/>
			<path fill="#2C436B" d="M69.652,451.094l-2.613-6.279h1.066l2.08,5.148l2.093-5.148h1.053l-2.613,6.279H69.652z"/>
			<path fill="#2C436B" d="M77.542,443.268c0-0.364,0.299-0.663,0.663-0.663c0.364,0,0.65,0.299,0.65,0.663s-0.286,0.649-0.65,0.649
				C77.841,443.917,77.542,443.632,77.542,443.268z M77.711,451.094v-6.279h0.975v6.279H77.711z"/>
			<path fill="#2C436B" d="M85.186,451.094v-0.937c-0.468,0.638-1.235,1.093-2.119,1.093c-1.638,0-2.795-1.248-2.795-3.289
				c0-2.016,1.157-3.303,2.795-3.303c0.845,0,1.612,0.416,2.119,1.105v-3.341h0.975v8.671H85.186z M85.186,449.378v-2.834
				c-0.338-0.547-1.105-1.015-1.872-1.015c-1.274,0-2.028,1.04-2.028,2.432c0,1.391,0.754,2.418,2.028,2.418
				C84.081,450.379,84.848,449.924,85.186,449.378z"/>
			<path fill="#2C436B" d="M87.513,445.842v-0.689h5.733v0.689H87.513z M87.513,448.351v-0.689h5.733v0.689H87.513z"/>
			<path fill="#2C436B" d="M94.676,445.737c0,0-0.351-2.665-0.351-2.847c0-0.325,0.26-0.599,0.585-0.599
				c0.338,0,0.598,0.273,0.598,0.599c0,0.182-0.351,2.847-0.351,2.847H94.676z M96.561,445.737c0,0-0.351-2.665-0.351-2.847
				c0-0.325,0.26-0.599,0.598-0.599c0.325,0,0.585,0.273,0.585,0.599c0,0.182-0.351,2.847-0.351,2.847H96.561z"/>
			<path fill="#2C436B" d="M103.321,451.094v-4.134c0-1.118-0.559-1.431-1.417-1.431c-0.754,0-1.482,0.468-1.846,0.976v4.589h-0.975
				v-8.671h0.975v3.302c0.429-0.533,1.287-1.066,2.236-1.066c1.313,0,2.002,0.638,2.002,2.002v4.434H103.321z"/>
			<path fill="#2C436B" d="M105.882,447.947c0-1.819,1.3-3.289,3.094-3.289c1.898,0,3.016,1.482,3.016,3.367v0.247h-5.07
				c0.078,1.184,0.897,2.171,2.25,2.171c0.728,0,1.443-0.286,1.95-0.806l0.468,0.637c-0.637,0.624-1.482,0.976-2.496,0.976
				C107.221,451.25,105.882,449.911,105.882,447.947z M108.963,445.465c-1.339,0-2.002,1.131-2.054,2.08h4.121
				C111.017,446.622,110.393,445.465,108.963,445.465z"/>
			<path fill="#2C436B" d="M117.491,451.094v-0.715c-0.507,0.572-1.235,0.871-2.08,0.871c-1.053,0-2.184-0.715-2.184-2.08
				c0-1.417,1.118-2.067,2.184-2.067c0.858,0,1.573,0.273,2.08,0.845v-1.131c0-0.832-0.676-1.312-1.586-1.312
				c-0.754,0-1.365,0.26-1.924,0.871l-0.455-0.677c0.676-0.702,1.482-1.04,2.509-1.04c1.339,0,2.431,0.599,2.431,2.119v4.316
				H117.491z M117.491,449.768v-1.196c-0.377-0.507-1.04-0.767-1.716-0.767c-0.923,0-1.56,0.572-1.56,1.365
				c0,0.806,0.637,1.378,1.56,1.378C116.451,450.548,117.114,450.288,117.491,449.768z"/>
			<path fill="#2C436B" d="M124.979,451.094v-0.937c-0.468,0.638-1.235,1.093-2.119,1.093c-1.638,0-2.795-1.248-2.795-3.289
				c0-2.016,1.157-3.303,2.795-3.303c0.845,0,1.612,0.416,2.119,1.105v-3.341h0.975v8.671H124.979z M124.979,449.378v-2.834
				c-0.338-0.547-1.105-1.015-1.872-1.015c-1.274,0-2.028,1.04-2.028,2.432c0,1.391,0.754,2.418,2.028,2.418
				C123.873,450.379,124.64,449.924,124.979,449.378z"/>
			<path fill="#2C436B" d="M127.539,447.947c0-1.819,1.3-3.289,3.094-3.289c1.898,0,3.016,1.482,3.016,3.367v0.247h-5.07
				c0.078,1.184,0.897,2.171,2.249,2.171c0.729,0,1.443-0.286,1.95-0.806l0.468,0.637c-0.637,0.624-1.482,0.976-2.496,0.976
				C128.879,451.25,127.539,449.911,127.539,447.947z M130.62,445.465c-1.339,0-2.002,1.131-2.054,2.08h4.121
				C132.675,446.622,132.051,445.465,130.62,445.465z"/>
			<path fill="#2C436B" d="M135.222,451.094v-6.279h0.975v1.001c0.507-0.65,1.235-1.144,2.093-1.144v1.001
				c-0.117-0.014-0.234-0.026-0.377-0.026c-0.611,0-1.43,0.494-1.716,1.001v4.446H135.222z"/>
			<path fill="#2C436B" d="M139.591,445.737c0,0-0.351-2.665-0.351-2.847c0-0.325,0.26-0.599,0.585-0.599
				c0.338,0,0.598,0.273,0.598,0.599c0,0.182-0.351,2.847-0.351,2.847H139.591z M141.475,445.737c0,0-0.351-2.665-0.351-2.847
				c0-0.325,0.26-0.599,0.598-0.599c0.325,0,0.585,0.273,0.585,0.599c0,0.182-0.351,2.847-0.351,2.847H141.475z"/>
			<path fill="#2C436B" d="M50.554,472.562l0.494-0.702c0.416,0.481,1.209,0.897,2.067,0.897c0.962,0,1.495-0.455,1.495-1.079
				c0-1.521-3.887-0.585-3.887-2.912c0-0.988,0.832-1.808,2.327-1.808c1.079,0,1.833,0.403,2.327,0.91l-0.455,0.676
				c-0.377-0.455-1.053-0.793-1.872-0.793c-0.858,0-1.391,0.43-1.391,0.988c0,1.365,3.887,0.468,3.887,2.912
				c0,1.053-0.845,1.898-2.457,1.898C52.05,473.55,51.192,473.225,50.554,472.562z"/>
			<path fill="#2C436B" d="M57.327,472.08v-4.107h-1.04v-0.858h1.04v-1.716h0.988v1.716h1.274v0.858h-1.274v3.899
				c0,0.469,0.208,0.807,0.624,0.807c0.286,0,0.533-0.13,0.663-0.273l0.286,0.741c-0.247,0.234-0.598,0.403-1.157,0.403
				C57.796,473.55,57.327,473.017,57.327,472.08z"/>
			<path fill="#2C436B" d="M60.759,474.967c0.143,0.064,0.377,0.104,0.533,0.104c0.429,0,0.715-0.143,0.936-0.663l0.416-0.948
				l-2.626-6.345h1.066l2.08,5.148l2.093-5.148h1.053l-3.146,7.554c-0.377,0.909-1.014,1.261-1.846,1.273
				c-0.208,0-0.533-0.039-0.702-0.091L60.759,474.967z"/>
			<path fill="#2C436B" d="M67.324,473.394v-8.671h0.975v8.671H67.324z"/>
			<path fill="#2C436B" d="M69.885,470.247c0-1.819,1.3-3.289,3.094-3.289c1.898,0,3.016,1.482,3.016,3.367v0.247h-5.07
				c0.078,1.184,0.897,2.171,2.25,2.171c0.728,0,1.443-0.285,1.95-0.806l0.468,0.637c-0.637,0.624-1.482,0.976-2.496,0.976
				C71.224,473.55,69.885,472.211,69.885,470.247z M72.966,467.765c-1.339,0-2.002,1.131-2.054,2.08h4.121
				C75.02,468.921,74.396,467.765,72.966,467.765z"/>
			<path fill="#2C436B" d="M76.97,468.142v-0.689h5.733v0.689H76.97z M76.97,470.65v-0.688h5.733v0.688H76.97z"/>
			<path fill="#2C436B" d="M84.133,468.037c0,0-0.351-2.665-0.351-2.847c0-0.325,0.26-0.599,0.585-0.599
				c0.338,0,0.598,0.273,0.598,0.599c0,0.182-0.351,2.847-0.351,2.847H84.133z M86.017,468.037c0,0-0.351-2.665-0.351-2.847
				c0-0.325,0.26-0.599,0.598-0.599c0.325,0,0.585,0.273,0.585,0.599c0,0.182-0.351,2.847-0.351,2.847H86.017z"/>
			<path fill="#2C436B" d="M88.526,473.394v-8.671h0.975v3.341c0.507-0.689,1.274-1.105,2.119-1.105
				c1.651,0,2.795,1.287,2.795,3.303c0,2.041-1.157,3.289-2.795,3.289c-0.884,0-1.651-0.455-2.119-1.092v0.936H88.526z
				 M91.386,472.679c1.261,0,2.015-1.027,2.015-2.418c0-1.392-0.754-2.432-2.015-2.432c-0.78,0-1.547,0.469-1.885,1.015v2.847
				C89.839,472.236,90.606,472.679,91.386,472.679z"/>
			<path fill="#2C436B" d="M99.928,473.394v-0.715c-0.507,0.572-1.235,0.871-2.08,0.871c-1.053,0-2.184-0.715-2.184-2.08
				c0-1.417,1.118-2.067,2.184-2.067c0.858,0,1.573,0.273,2.08,0.845v-1.131c0-0.832-0.676-1.312-1.586-1.312
				c-0.754,0-1.365,0.26-1.924,0.871l-0.455-0.677c0.676-0.702,1.482-1.04,2.509-1.04c1.339,0,2.431,0.599,2.431,2.119v4.316H99.928
				z M99.928,472.067v-1.196c-0.377-0.507-1.04-0.767-1.716-0.767c-0.923,0-1.56,0.572-1.56,1.365c0,0.806,0.637,1.378,1.56,1.378
				C98.887,472.848,99.55,472.588,99.928,472.067z"/>
			<path fill="#2C436B" d="M102.501,470.247c0-1.858,1.261-3.289,3.133-3.289c1.144,0,1.82,0.469,2.301,1.093l-0.65,0.585
				c-0.416-0.572-0.949-0.807-1.599-0.807c-1.326,0-2.171,1.027-2.171,2.418c0,1.392,0.845,2.432,2.171,2.432
				c0.65,0,1.183-0.26,1.599-0.819l0.65,0.599c-0.481,0.623-1.157,1.092-2.301,1.092
				C103.762,473.55,102.501,472.107,102.501,470.247z"/>
			<path fill="#2C436B" d="M113.59,473.394l-2.25-2.821l-1.053,1.027v1.794h-0.975v-8.671h0.975v5.732l3.302-3.341h1.235
				l-2.782,2.848l2.795,3.432H113.59z"/>
			<path fill="#2C436B" d="M115.943,474.992l0.494-0.701c0.52,0.61,1.144,0.845,2.041,0.845c1.04,0,2.028-0.507,2.028-1.833v-0.949
				c-0.468,0.637-1.235,1.118-2.119,1.118c-1.638,0-2.795-1.223-2.795-3.25c0-2.016,1.144-3.264,2.795-3.264
				c0.845,0,1.612,0.416,2.119,1.105v-0.949h0.975v6.188c0,1.989-1.469,2.639-3.003,2.639
				C117.425,475.941,116.697,475.733,115.943,474.992z M120.506,471.587v-2.757c-0.351-0.532-1.105-1.001-1.872-1.001
				c-1.274,0-2.028,1.001-2.028,2.393c0,1.378,0.754,2.379,2.028,2.379C119.401,472.601,120.155,472.133,120.506,471.587z"/>
			<path fill="#2C436B" d="M123.431,473.394v-6.279h0.975v1.001c0.507-0.649,1.235-1.144,2.093-1.144v1.001
				c-0.117-0.014-0.234-0.026-0.377-0.026c-0.611,0-1.43,0.494-1.716,1.001v4.446H123.431z"/>
			<path fill="#2C436B" d="M127.357,470.247c0-1.819,1.196-3.289,3.107-3.289s3.107,1.47,3.107,3.289
				c0,1.82-1.196,3.303-3.107,3.303S127.357,472.067,127.357,470.247z M132.544,470.247c0-1.273-0.741-2.418-2.08-2.418
				c-1.339,0-2.08,1.145-2.08,2.418c0,1.287,0.741,2.432,2.08,2.432C131.803,472.679,132.544,471.534,132.544,470.247z"/>
			<path fill="#2C436B" d="M139.395,473.394v-0.884c-0.481,0.546-1.3,1.04-2.236,1.04c-1.313,0-2.002-0.65-2.002-2.002v-4.434h0.975
				v4.134c0,1.105,0.559,1.431,1.417,1.431c0.754,0,1.482-0.442,1.846-0.949v-4.615h0.975v6.279H139.395z"/>
			<path fill="#2C436B" d="M146.571,473.394v-4.108c0-1.118-0.572-1.456-1.417-1.456c-0.767,0-1.482,0.469-1.859,0.976v4.589h-0.975
				v-6.279h0.975v0.91c0.442-0.533,1.3-1.066,2.249-1.066c1.3,0,1.989,0.663,1.989,2.028v4.407H146.571z"/>
			<path fill="#2C436B" d="M154.046,473.394v-0.936c-0.468,0.637-1.235,1.092-2.119,1.092c-1.638,0-2.795-1.248-2.795-3.289
				c0-2.016,1.157-3.303,2.795-3.303c0.845,0,1.612,0.416,2.119,1.105v-3.341h0.975v8.671H154.046z M154.046,471.678v-2.834
				c-0.338-0.546-1.105-1.015-1.872-1.015c-1.274,0-2.028,1.04-2.028,2.432c0,1.391,0.754,2.418,2.028,2.418
				C152.941,472.679,153.708,472.224,154.046,471.678z"/>
			<path fill="#2C436B" d="M156.386,470.677v-0.858h3.12v0.858H156.386z"/>
			<path fill="#2C436B" d="M160.507,470.247c0-1.858,1.261-3.289,3.133-3.289c1.144,0,1.82,0.469,2.301,1.093l-0.65,0.585
				c-0.416-0.572-0.949-0.807-1.599-0.807c-1.326,0-2.171,1.027-2.171,2.418c0,1.392,0.845,2.432,2.171,2.432
				c0.65,0,1.183-0.26,1.599-0.819l0.65,0.599c-0.481,0.623-1.157,1.092-2.301,1.092
				C161.768,473.55,160.507,472.107,160.507,470.247z"/>
			<path fill="#2C436B" d="M166.954,470.247c0-1.819,1.196-3.289,3.107-3.289s3.107,1.47,3.107,3.289
				c0,1.82-1.196,3.303-3.107,3.303S166.954,472.067,166.954,470.247z M172.142,470.247c0-1.273-0.741-2.418-2.08-2.418
				c-1.339,0-2.08,1.145-2.08,2.418c0,1.287,0.741,2.432,2.08,2.432C171.401,472.679,172.142,471.534,172.142,470.247z"/>
			<path fill="#2C436B" d="M174.755,473.394v-8.671h0.975v8.671H174.755z"/>
			<path fill="#2C436B" d="M177.315,470.247c0-1.819,1.196-3.289,3.107-3.289s3.107,1.47,3.107,3.289
				c0,1.82-1.196,3.303-3.107,3.303S177.315,472.067,177.315,470.247z M182.503,470.247c0-1.273-0.741-2.418-2.08-2.418
				c-1.339,0-2.08,1.145-2.08,2.418c0,1.287,0.741,2.432,2.08,2.432C181.761,472.679,182.503,471.534,182.503,470.247z"/>
			<path fill="#2C436B" d="M185.115,473.394v-6.279h0.975v1.001c0.507-0.649,1.235-1.144,2.093-1.144v1.001
				c-0.117-0.014-0.234-0.026-0.377-0.026c-0.611,0-1.43,0.494-1.716,1.001v4.446H185.115z"/>
			<path fill="#2C436B" d="M189.21,467.738c0-0.39,0.325-0.715,0.715-0.715s0.715,0.325,0.715,0.715
				c0,0.377-0.325,0.715-0.715,0.715S189.21,468.115,189.21,467.738z M189.21,472.809c0-0.39,0.325-0.715,0.715-0.715
				s0.715,0.325,0.715,0.715s-0.325,0.715-0.715,0.715S189.21,473.198,189.21,472.809z"/>
			<path fill="#2C436B" d="M194.462,473.394l0.793-2.354h-1.443l-0.78,2.354h-0.806l0.793-2.354h-1.378l0.221-0.688h1.391
				l0.858-2.587h-1.404l0.208-0.677h1.43l0.78-2.365h0.806l-0.78,2.365h1.43l0.78-2.365h0.793l-0.793,2.365h1.391l-0.195,0.677
				h-1.417l-0.871,2.587h1.443l-0.208,0.688h-1.469l-0.78,2.354H194.462z M196.347,467.765h-1.43l-0.871,2.587h1.43L196.347,467.765
				z"/>
			<path fill="#2C436B" d="M200.052,473.394v-8.671h5.681v0.962h-4.602v2.795h4.511v0.962h-4.511v3.952H200.052z"/>
			<path fill="#2C436B" d="M207.215,473.394v-8.671h5.681v0.962h-4.602v2.795h4.511v0.962h-4.511v3.952H207.215z"/>
			<path fill="#2C436B" d="M220.098,473.394l-0.767-1.938h-4.316l-0.767,1.938h-1.235l3.497-8.671h1.339l3.484,8.671H220.098z
				 M217.174,465.827l-1.833,4.681h3.679L217.174,465.827z"/>
			<path fill="#2C436B" d="M222.308,472.158l0.663-0.728c0.572,0.741,1.339,1.157,2.392,1.157c1.183,0,2.002-0.807,2.002-1.859
				c0-1.145-0.819-1.872-1.989-1.872c-0.754,0-1.417,0.247-2.002,0.806l-0.793-0.272v-4.667h5.304v0.962h-4.225v3.016
				c0.429-0.416,1.157-0.78,2.028-0.78c1.456,0,2.769,0.976,2.769,2.77c0,1.755-1.352,2.86-3.094,2.86
				C223.907,473.55,222.958,473.017,222.308,472.158z"/>
			<path fill="#2C436B" d="M229.783,469.065c0-2.119,0.936-4.473,3.315-4.473c2.366,0,3.315,2.354,3.315,4.473
				c0,2.106-0.949,4.485-3.315,4.485C230.719,473.55,229.783,471.171,229.783,469.065z M235.308,469.065
				c0-1.729-0.559-3.51-2.21-3.51c-1.651,0-2.21,1.78-2.21,3.51s0.559,3.523,2.21,3.523
				C234.749,472.588,235.308,470.794,235.308,469.065z"/>
			<path fill="#2C436B" d="M237.739,469.065c0-2.119,0.936-4.473,3.315-4.473c2.366,0,3.315,2.354,3.315,4.473
				c0,2.106-0.949,4.485-3.315,4.485C238.675,473.55,237.739,471.171,237.739,469.065z M243.264,469.065
				c0-1.729-0.559-3.51-2.21-3.51c-1.651,0-2.21,1.78-2.21,3.51s0.559,3.523,2.21,3.523
				C242.705,472.588,243.264,470.794,243.264,469.065z"/>
			<path fill="#2C436B" d="M246.267,475.019l-0.494-0.39c0.416-0.273,0.793-0.793,0.845-1.223c-0.026,0.014-0.117,0.026-0.182,0.026
				c-0.351,0-0.624-0.273-0.624-0.663c0-0.377,0.299-0.702,0.689-0.702c0.442,0,0.819,0.364,0.819,0.988
				C247.32,473.861,246.865,474.59,246.267,475.019z M245.812,467.738c0-0.39,0.325-0.715,0.715-0.715s0.715,0.325,0.715,0.715
				c0,0.377-0.325,0.715-0.715,0.715S245.812,468.115,245.812,467.738z"/>
			<path fill="#2C436B" d="M249.075,468.037c0,0-0.351-2.665-0.351-2.847c0-0.325,0.26-0.599,0.585-0.599
				c0.338,0,0.598,0.273,0.598,0.599c0,0.182-0.351,2.847-0.351,2.847H249.075z M250.96,468.037c0,0-0.351-2.665-0.351-2.847
				c0-0.325,0.26-0.599,0.598-0.599c0.325,0,0.585,0.273,0.585,0.599c0,0.182-0.351,2.847-0.351,2.847H250.96z"/>
			<path fill="#2C436B" d="M252.87,472.224v-0.819l4.901-2.353l-4.901-2.38v-0.818l5.733,2.847v0.689L252.87,472.224z"/>
		</g>
	</g>
	
		<rect x="188.467" y="-107.992" transform="matrix(0.4839 0.8751 -0.8751 0.4839 186.7464 -112.6107)" fill="#2C436B" width="0.759" height="420.026"/>
	
		<rect x="346.465" y="101.216" transform="matrix(0.8751 0.4839 -0.4839 0.8751 118.5638 -256.2342)" fill="#2C436B" width="418.518" height="0.759"/>
	<rect x="372.219" y="0.332" fill="#2C436B" width="0.759" height="200.936"/>
	
		<rect x="301.353" y="-22.146" transform="matrix(0.8171 0.5765 -0.5765 0.8171 113.293 -155.5076)" fill="#2C436B" width="0.759" height="245.893"/>
	
		<rect x="320.518" y="100.421" transform="matrix(0.5764 0.8172 -0.8172 0.5764 270.2229 -319.6863)" fill="#2C436B" width="245.893" height="0.759"/>
</g>
</svg>
