<?xml version="1.0" encoding="utf-8"?>
<!-- Generator: Adobe Illustrator 17.0.0, SVG Export Plug-In . SVG Version: 6.00 Build 0)  -->
<!DOCTYPE svg PUBLIC "-//W3C//DTD SVG 1.1//EN" "http://www.w3.org/Graphics/SVG/1.1/DTD/svg11.dtd">
<svg version="1.1" id="Layer_1" xmlns="http://www.w3.org/2000/svg" xmlns:xlink="http://www.w3.org/1999/xlink" x="0px" y="0px"
	 width="747.467px" height="187.128px" viewBox="0 0 747.467 187.128" enable-background="new 0 0 747.467 187.128"
	 xml:space="preserve">
<g>
	<g>
		<g>
			<g>
				<path fill="#E6E6E6" d="M266.089,187.128H9.93c-5.476,0-9.93-4.455-9.93-9.931V9.931C0,4.455,4.455,0,9.93,0h256.159
					c5.476,0,9.93,4.455,9.93,9.931v167.267C276.019,182.673,271.565,187.128,266.089,187.128z M9.93,0.75
					c-5.062,0-9.18,4.118-9.18,9.181v167.267c0,5.062,4.118,9.181,9.18,9.181h256.159c5.062,0,9.18-4.118,9.18-9.181V9.931
					c0-5.062-4.118-9.181-9.18-9.181H9.93z"/>
				<path fill="#E6E6E6" d="M262.592,162.332H13.427V13.254h249.165V162.332z M14.177,161.582h247.665V14.004H14.177V161.582z"/>
				<path fill="#E6E6E6" d="M138.01,171.488c2.335,0,4.234,1.899,4.234,4.234s-1.899,4.234-4.234,4.234s-4.234-1.899-4.234-4.234
					S135.675,171.488,138.01,171.488 M138.01,170.738c-2.752,0-4.984,2.231-4.984,4.984s2.231,4.984,4.984,4.984
					s4.984-2.231,4.984-4.984S140.762,170.738,138.01,170.738L138.01,170.738z"/>
			</g>
		</g>
		<g>
			<g>
				<path fill="#E6E6E6" d="M484.98,186.05H378.168c-5.415,0-9.82-4.405-9.82-9.82V10.898c0-5.415,4.405-9.82,9.82-9.82H484.98
					c5.415,0,9.819,4.405,9.819,9.82V176.23C494.799,181.645,490.394,186.05,484.98,186.05z M378.168,1.828
					c-5.001,0-9.07,4.069-9.07,9.07V176.23c0,5.001,4.069,9.07,9.07,9.07H484.98c5.001,0,9.069-4.069,9.069-9.07V10.898
					c0-5.001-4.068-9.07-9.069-9.07H378.168z"/>
				<path fill="#E6E6E6" d="M489.224,157.293H373.922V21.611h115.302V157.293z M374.672,156.543h113.802V22.361H374.672V156.543z"/>
				<path fill="#E6E6E6" d="M431.573,163.522c4.264,0,7.734,3.469,7.734,7.734s-3.469,7.734-7.734,7.734s-7.734-3.469-7.734-7.734
					S427.309,163.522,431.573,163.522 M431.573,162.772c-4.686,0-8.484,3.798-8.484,8.484s3.798,8.484,8.484,8.484
					c4.685,0,8.484-3.798,8.484-8.484S436.259,162.772,431.573,162.772L431.573,162.772z"/>
				<g>
					<path fill="#E6E6E6" d="M444.84,10.841c0.482,0,0.875,0.393,0.875,0.875s-0.392,0.875-0.875,0.875h-18.376
						c-0.482,0-0.875-0.392-0.875-0.875s0.392-0.875,0.875-0.875H444.84 M444.84,10.091h-18.376c-0.897,0-1.625,0.728-1.625,1.625
						c0,0.897,0.727,1.625,1.625,1.625h18.376c0.897,0,1.625-0.728,1.625-1.625C446.465,10.819,445.737,10.091,444.84,10.091
						L444.84,10.091z"/>
					<path fill="#E6E6E6" d="M418.309,10.84c0.483,0,0.876,0.393,0.876,0.876c0,0.483-0.393,0.876-0.876,0.876
						s-0.876-0.393-0.876-0.876C417.432,11.233,417.825,10.84,418.309,10.84 M418.309,10.09c-0.898,0-1.626,0.728-1.626,1.626
						s0.728,1.626,1.626,1.626s1.626-0.728,1.626-1.626S419.207,10.09,418.309,10.09L418.309,10.09z"/>
				</g>
			</g>
		</g>
		<g>
			<g>
				<g>
					<path fill="#E6E6E6" d="M654.823,164.11h-64.185c-3.337,0-6.051-2.715-6.051-6.051V29.068c0-3.336,2.714-6.05,6.051-6.05
						h64.185c3.336,0,6.051,2.714,6.051,6.05V158.06C660.874,161.396,658.159,164.11,654.823,164.11z M590.639,23.769
						c-2.923,0-5.301,2.378-5.301,5.3V158.06c0,2.923,2.378,5.301,5.301,5.301h64.185c2.923,0,5.301-2.378,5.301-5.301V29.068
						c0-2.922-2.378-5.3-5.301-5.3H590.639z"/>
					<path fill="#E6E6E6" d="M656.493,141.416h-66.841V37.946h66.841V141.416z M590.402,140.666h65.341V38.696h-65.341V140.666z"/>
				</g>
				<path fill="#E6E6E6" d="M622.731,147.139c3.056,0,5.542,2.486,5.542,5.542s-2.486,5.542-5.542,5.542s-5.542-2.486-5.542-5.542
					S619.675,147.139,622.731,147.139 M622.731,146.389c-3.475,0-6.292,2.817-6.292,6.292c0,3.475,2.817,6.292,6.292,6.292
					c3.475,0,6.292-2.817,6.292-6.292C629.023,149.206,626.206,146.389,622.731,146.389L622.731,146.389z"/>
			</g>
		</g>
		<g>
			<path fill="#E6E6E6" d="M745.074,107.371h-22.815c-1.318,0-2.392-1.073-2.392-2.393V82.149c0-1.319,1.073-2.393,2.392-2.393
				h22.815c1.319,0,2.393,1.073,2.393,2.393v22.829C747.467,106.298,746.394,107.371,745.074,107.371z M722.259,80.507
				c-0.905,0-1.642,0.737-1.642,1.643v22.829c0,0.905,0.736,1.643,1.642,1.643h22.815c0.905,0,1.643-0.737,1.643-1.643V82.149
				c0-0.905-0.737-1.643-1.643-1.643H722.259z"/>
			<path fill="#E6E6E6" d="M733.667,84.711c4.882,0,8.853,3.972,8.853,8.853s-3.972,8.853-8.853,8.853
				c-4.882,0-8.853-3.972-8.853-8.853S728.785,84.711,733.667,84.711 M733.667,83.961c-5.304,0-9.603,4.3-9.603,9.603
				s4.3,9.603,9.603,9.603s9.603-4.3,9.603-9.603S738.971,83.961,733.667,83.961L733.667,83.961z"/>
			<rect x="725.481" y="112.785" fill="#E6E6E6" width="16.372" height="0.75"/>
		</g>
	</g>
</g>
</svg>
