<?xml version="1.0" encoding="utf-8"?>
<!-- Generator: Adobe Illustrator 17.0.0, SVG Export Plug-In . SVG Version: 6.00 Build 0)  -->
<!DOCTYPE svg PUBLIC "-//W3C//DTD SVG 1.1//EN" "http://www.w3.org/Graphics/SVG/1.1/DTD/svg11.dtd">
<svg version="1.1" id="Layer_1" xmlns="http://www.w3.org/2000/svg" xmlns:xlink="http://www.w3.org/1999/xlink" x="0px" y="0px"
	 width="371.119px" height="458.226px" viewBox="0 0 371.119 458.226" enable-background="new 0 0 371.119 458.226"
	 xml:space="preserve">
<path fill="#2C436B" d="M346.3,92.933c-0.053-0.092-0.109-0.183-0.163-0.275C313.989,37.304,254.051,0,185.559,0
	C117.067,0,57.129,37.305,24.981,92.659c-0.053,0.091-0.108,0.181-0.161,0.272C9.041,120.207,0,151.847,0,185.56
	c0,33.713,9.041,65.352,24.82,92.628c0.053,0.091,0.108,0.18,0.16,0.271c32.09,55.253,91.869,92.517,160.204,92.653v87.114h0.75
	v-87.114c68.335-0.136,128.114-37.399,160.204-92.652c0.053-0.092,0.109-0.182,0.162-0.273
	c15.778-27.275,24.819-58.914,24.819-92.626C371.119,151.847,362.079,120.208,346.3,92.933z M24.793,276.113
	C9.656,249.343,1,218.445,1,185.56c0-32.886,8.656-63.784,23.793-90.554V276.113z M344.35,91.6L187.467,1.024
	C254.148,1.704,312.464,37.918,344.35,91.6z M183.652,1.024L26.769,91.601C58.655,37.918,116.971,1.704,183.652,1.024z
	 M185.559,1.077L344.826,93.03l-159.267,91.952L26.293,93.03L185.559,1.077z M26.769,279.518l156.883,90.576
	C116.971,369.414,58.655,333.2,26.769,279.518z M185.059,369.752L25.793,277.8V93.896l159.266,91.952V369.752z M187.467,370.094
	l156.883-90.576C312.464,333.2,254.148,369.414,187.467,370.094z M345.326,277.8l-159.267,91.952V185.848l159.267-91.952V277.8z
	 M346.326,95.007c15.137,26.769,23.793,57.667,23.793,90.553c0,32.885-8.656,63.783-23.793,90.552V95.007z"/>
</svg>
