<?xml version="1.0" encoding="utf-8"?>
<!-- Generator: Adobe Illustrator 17.0.0, SVG Export Plug-In . SVG Version: 6.00 Build 0)  -->
<!DOCTYPE svg PUBLIC "-//W3C//DTD SVG 1.1//EN" "http://www.w3.org/Graphics/SVG/1.1/DTD/svg11.dtd">
<svg version="1.1" id="Layer_1" xmlns="http://www.w3.org/2000/svg" xmlns:xlink="http://www.w3.org/1999/xlink" x="0px" y="0px"
	 width="72.776px" height="742.252px" viewBox="0 0 72.776 742.252" enable-background="new 0 0 72.776 742.252"
	 xml:space="preserve">
<g>
	<g>
		<linearGradient id="SVGID_1_" gradientUnits="userSpaceOnUse" x1="4.1763" y1="229.1767" x2="78.7236" y2="315.4386">
			<stop  offset="0" style="stop-color:#17B5FF"/>
			<stop  offset="0.4321" style="stop-color:#2CCCEF"/>
			<stop  offset="1" style="stop-color:#45E7DD"/>
		</linearGradient>
		<path fill="url(#SVGID_1_)" d="M68.735,252.878l-7.735,4.25c0.751,2.415,1.156,4.981,1.156,7.64
			c0,14.208-11.559,25.768-25.768,25.768c-7.857,0-14.899-3.539-19.63-9.102l-7.741,4.253c6.296,8.226,16.211,13.535,27.37,13.535
			c19.028,0,34.454-15.425,34.454-34.454C70.842,260.589,70.097,256.585,68.735,252.878z"/>
		<linearGradient id="SVGID_2_" gradientUnits="userSpaceOnUse" x1="5.8406" y1="227.7384" x2="80.388" y2="314.0003">
			<stop  offset="0" style="stop-color:#17B5FF"/>
			<stop  offset="0.4321" style="stop-color:#2CCCEF"/>
			<stop  offset="1" style="stop-color:#45E7DD"/>
		</linearGradient>
		<path fill="url(#SVGID_2_)" d="M10.62,264.768C10.62,250.56,22.179,239,36.388,239c7.857,0,14.9,3.539,19.63,9.102l7.741-4.253
			c-6.296-8.226-16.211-13.536-27.37-13.536c-19.029,0-34.454,15.426-34.454,34.454c0,4.179,0.745,8.184,2.108,11.889l7.735-4.25
			C11.025,269.993,10.62,267.427,10.62,264.768z"/>
	</g>
	<linearGradient id="SVGID_3_" gradientUnits="userSpaceOnUse" x1="9.8362" y1="437.3257" x2="74.7989" y2="535.3022">
		<stop  offset="0" style="stop-color:#17B5FF"/>
		<stop  offset="0.4321" style="stop-color:#2CCCEF"/>
		<stop  offset="1" style="stop-color:#45E7DD"/>
	</linearGradient>
	<path fill="url(#SVGID_3_)" d="M72.776,473.192H40.573v-40.003L0,481.551h32.203v40.004L72.776,473.192z M40.58,481.569h14.233
		L40.58,498.534V481.569z M32.196,473.173H17.963l14.233-16.965V473.173z"/>
	<linearGradient id="SVGID_4_" gradientUnits="userSpaceOnUse" x1="7.9456" y1="660.9004" x2="81.428" y2="771.6565">
		<stop  offset="0" style="stop-color:#17B5FF"/>
		<stop  offset="0.4321" style="stop-color:#2CCCEF"/>
		<stop  offset="1" style="stop-color:#45E7DD"/>
	</linearGradient>
	<path fill="url(#SVGID_4_)" d="M36.388,665.288L3.062,684.529v38.482l33.326,19.241l33.326-19.241v-38.482L36.388,665.288z
		 M36.388,674.231l21.204,12.242l-21.204,12.242l-21.204-12.242L36.388,674.231z M61.337,718.174l-0.007,0.004v0.007l-24.941,14.4
		l-24.941-14.4v-0.007l-0.007-0.004v-19.135l0.007,0.004v-4.189l24.941,14.406l24.941-14.406v4.189l0.007-0.004V718.174z"/>
	<linearGradient id="SVGID_5_" gradientUnits="userSpaceOnUse" x1="6.1037" y1="6.1691" x2="97.6905" y2="107.3405">
		<stop  offset="0" style="stop-color:#17B5FF"/>
		<stop  offset="0.4321" style="stop-color:#2CCCEF"/>
		<stop  offset="1" style="stop-color:#45E7DD"/>
	</linearGradient>
	<path fill="url(#SVGID_5_)" d="M58.444,39.623c9.526-7.847,14.707-15.46,12.463-19.559c-1.058-1.932-3.635-2.849-7.276-2.849
		c-4.226,0-9.891,1.244-16.27,3.564C45.252,8.404,41.129,0,36.388,0s-8.864,8.404-10.973,20.778
		c-6.379-2.32-12.044-3.564-16.27-3.564c-3.641,0-6.218,0.917-7.276,2.849c-2.244,4.099,2.937,11.712,12.463,19.559
		C4.806,47.47-0.376,55.082,1.869,59.181c1.058,1.932,3.635,2.849,7.276,2.849c4.226,0,9.891-1.244,16.27-3.563
		c2.11,12.374,6.233,20.778,10.973,20.778s8.864-8.404,10.973-20.778c6.379,2.319,12.044,3.563,16.27,3.563
		c3.641,0,6.218-0.917,7.276-2.849C73.152,55.082,67.97,47.47,58.444,39.623z M63.631,22.642c1.092,0,1.806,0.107,2.246,0.214
		c-0.409,1.298-1.954,4.193-6.272,8.448c-1.642,1.617-3.526,3.261-5.572,4.896c-1.698-1.242-3.496-2.477-5.378-3.694
		c-0.122-2.139-0.296-4.219-0.522-6.223C54.227,23.969,59.711,22.642,63.631,22.642z M43.356,43.695
		c-1.381,2.358-3.918,3.952-6.836,3.999c-0.044,0.001-0.087,0.007-0.132,0.007s-0.088-0.006-0.132-0.007
		c-2.918-0.047-5.455-1.641-6.836-3.999c-0.013-0.021-0.026-0.042-0.038-0.063c-0.678-1.182-1.072-2.549-1.072-4.01
		s0.393-2.827,1.072-4.009c0.012-0.021,0.026-0.042,0.038-0.063c1.381-2.357,3.918-3.951,6.836-3.999
		c0.044-0.001,0.087-0.007,0.132-0.007s0.088,0.006,0.132,0.007c2.918,0.047,5.455,1.641,6.836,3.999
		c0.013,0.021,0.026,0.042,0.038,0.063c0.678,1.182,1.072,2.549,1.072,4.009s-0.394,2.827-1.072,4.01
		C43.382,43.654,43.368,43.674,43.356,43.695z M32.149,15.287c1.569-5.823,3.32-8.568,4.239-9.546
		c0.919,0.978,2.671,3.723,4.239,9.547c0.621,2.304,1.138,4.848,1.56,7.541c-1.895,0.813-3.835,1.718-5.799,2.695
		c-1.964-0.977-3.904-1.882-5.799-2.695C31.011,20.135,31.528,17.591,32.149,15.287z M13.171,31.305
		c-4.319-4.255-5.863-7.15-6.272-8.448c0.44-0.107,1.154-0.214,2.246-0.214c3.921,0,9.404,1.327,15.498,3.641
		c-0.225,2.004-0.4,4.084-0.522,6.223c-1.882,1.217-3.68,2.452-5.378,3.694C16.697,34.565,14.812,32.922,13.171,31.305z
		 M9.145,56.603c-1.092,0-1.806-0.108-2.246-0.214c0.409-1.298,1.954-4.193,6.272-8.448c1.642-1.617,3.526-3.26,5.572-4.896
		c1.698,1.242,3.496,2.477,5.378,3.694c0.122,2.139,0.296,4.219,0.522,6.223C18.549,55.276,13.065,56.603,9.145,56.603z
		 M40.627,63.958c-1.568,5.823-3.32,8.568-4.239,9.546c-0.919-0.978-2.671-3.723-4.239-9.546c-0.621-2.304-1.138-4.848-1.56-7.541
		c1.895-0.813,3.835-1.718,5.799-2.695c1.964,0.977,3.904,1.882,5.799,2.695C41.765,59.111,41.248,61.654,40.627,63.958z
		 M63.631,56.603c-3.921,0-9.404-1.327-15.498-3.641c0.225-2.004,0.4-4.084,0.522-6.223c1.882-1.217,3.68-2.452,5.378-3.694
		c2.046,1.636,3.93,3.279,5.572,4.896c4.319,4.255,5.863,7.15,6.272,8.448C65.438,56.495,64.723,56.603,63.631,56.603z"/>
	<rect x="36.013" y="105.453" fill="#CCCCCC" width="0.75" height="100"/>
	<rect x="36.013" y="316.06" fill="#CCCCCC" width="0.75" height="100"/>
	<rect x="36.013" y="540.166" fill="#CCCCCC" width="0.75" height="107.57"/>
</g>
</svg>
