<?xml version="1.0" encoding="utf-8"?>
<!-- Generator: Adobe Illustrator 17.0.0, SVG Export Plug-In . SVG Version: 6.00 Build 0)  -->
<!DOCTYPE svg PUBLIC "-//W3C//DTD SVG 1.1//EN" "http://www.w3.org/Graphics/SVG/1.1/DTD/svg11.dtd">
<svg version="1.1" id="Layer_1" xmlns="http://www.w3.org/2000/svg" xmlns:xlink="http://www.w3.org/1999/xlink" x="0px" y="0px"
	 width="557.834px" height="433.105px" viewBox="0 0 557.834 433.105" enable-background="new 0 0 557.834 433.105"
	 xml:space="preserve">
<g>
	<path fill="#2C436B" d="M557.834,286.841c0-12.841-1.665-25.581-4.949-37.866l-0.008,0.002c-0.022-0.083-0.066-0.16-0.129-0.223
		L449.657,145.663c-0.126-0.126-0.309-0.174-0.483-0.13L308.35,183.266c-0.172,0.047-0.307,0.182-0.354,0.354l-37.734,140.825
		c-0.046,0.173,0.003,0.357,0.129,0.483l103.091,103.091c0.063,0.063,0.143,0.099,0.227,0.121l-0.004,0.016
		c12.286,3.283,25.026,4.948,37.865,4.948c40.215,0,76.688-16.316,103.156-42.673l0.064-0.017c0.172-0.047,0.307-0.182,0.354-0.354
		l0.017-0.064C541.518,363.53,557.834,327.056,557.834,286.841z M556.834,286.841c0,39.305-15.698,75.007-41.146,101.186
		l36.693-136.941C555.325,262.714,556.834,274.729,556.834,286.841z M514.216,389.533l-139.673,37.426l37.435-139.709
		l139.709-37.435l-37.425,139.672C514.246,389.502,514.231,389.518,514.216,389.533z M449.154,146.574l102.274,102.274
		l-139.709,37.435L309.445,184.009L449.154,146.574z M308.738,184.716L411.012,286.99L373.577,426.7L271.303,324.426
		L308.738,184.716z M411.57,432.105c-12.109,0-24.124-1.509-35.753-4.452l136.938-36.693
		C486.576,416.407,450.875,432.105,411.57,432.105z"/>
	<path fill="#2C436B" d="M281.597,121.935L281.597,121.935L281.597,121.935L281.597,121.935L281.597,121.935L211.487,0.5L211.198,0
		h-0.577H70.4L0.289,121.435L0,121.935l0,0v0l0,0l0,0l0.289,0.5l69.966,121.186l0.145,0.25h140.221h0.577l0.289-0.5l69.966-121.186
		L281.597,121.935z M70.977,1h139.067L140.51,121.435H1.443L70.977,1z M70.977,242.871L1.443,122.435H140.51l69.533,120.436H70.977z
		 M210.91,242.371l-36.127-62.574l-33.406-57.861l53.22-92.18L210.91,1.5l69.533,120.436L210.91,242.371z"/>
</g>
</svg>
