<?xml version="1.0" encoding="utf-8"?>
<!-- Generator: Adobe Illustrator 17.0.0, SVG Export Plug-In . SVG Version: 6.00 Build 0)  -->
<!DOCTYPE svg PUBLIC "-//W3C//DTD SVG 1.1//EN" "http://www.w3.org/Graphics/SVG/1.1/DTD/svg11.dtd">
<svg version="1.1" id="Layer_1" xmlns="http://www.w3.org/2000/svg" xmlns:xlink="http://www.w3.org/1999/xlink" x="0px" y="0px"
	 width="800.835px" height="86.586px" viewBox="0 0 800.835 86.586" enable-background="new 0 0 800.835 86.586"
	 xml:space="preserve">
<g>
	<g>
		<path fill="#1F2E47" d="M169.178,0.014c0.001,0.139,0.01,0.274,0.01,0.413c0,14.999-3.959,29.082-10.86,41.293V0.014h-0.75v41.907
			L85.344,0.216V0.014h-0.351L84.969,0l-0.024,0.014h-0.351v0.202L44.135,23.575L12.36,41.92V0.014h-0.75v41.706
			C4.709,29.508,0.75,15.425,0.75,0.427c0-0.139,0.01-0.274,0.01-0.413h-0.75C0.01,0.152,0,0.288,0,0.427
			C0,15.757,4.102,30.14,11.235,42.57c0.122,0.212,0.251,0.419,0.375,0.63v0.02l0.009-0.005
			c14.758,25.201,42.097,42.181,73.35,42.181c46.852,0,84.969-38.117,84.969-84.969c0-0.139-0.01-0.274-0.01-0.413H169.178z
			 M12.735,42.57l7.839-4.526L84.97,0.866l72.233,41.704L84.969,84.274L12.735,42.57z M12.531,43.318l71.542,41.304
			C53.665,84.302,27.079,67.795,12.531,43.318z M85.865,84.623l71.543-41.305C142.859,67.795,116.272,84.303,85.865,84.623z"/>
	</g>
	<g>
		<path fill="#1F2E47" d="M484.238,0c0.001,0.139,0.01,0.274,0.01,0.413c0,46.438-37.781,84.219-84.219,84.219
			s-84.219-37.78-84.219-84.219c0-0.139,0.01-0.274,0.01-0.413h-0.75c-0.001,0.139-0.01,0.274-0.01,0.413
			c0,46.852,38.117,84.969,84.969,84.969s84.969-38.117,84.969-84.969c0-0.139-0.01-0.274-0.01-0.413H484.238z"/>
		<path fill="#1F2E47" d="M400.029,53.615c29.336,0,53.203-23.866,53.203-53.202c0-0.139-0.01-0.274-0.01-0.413h-0.75
			c0.001,0.139,0.01,0.274,0.01,0.413c0,28.922-23.53,52.452-52.453,52.452s-52.452-23.53-52.452-52.452
			c0-0.139,0.009-0.274,0.01-0.413h-0.75c-0.001,0.139-0.01,0.274-0.01,0.413C346.827,29.749,370.693,53.615,400.029,53.615z"/>
	</g>
	<g>
		<path fill="#1F2E47" d="M800.824,1.204c-0.001-0.152-0.01-0.302-0.011-0.454c-0.003-0.251-0.014-0.5-0.019-0.75h-0.75h-83.623
			h-0.307h-0.092h-0.084h-0.325h-0.314h-0.338h-1.031h-82.241h-0.75c-0.005,0.25-0.016,0.499-0.019,0.75
			c-0.001,0.152-0.011,0.302-0.011,0.454c-0.001,0.139-0.01,0.274-0.01,0.413c0,46.852,38.117,84.969,84.969,84.969
			c23.606,0,44.988-9.684,60.401-25.279c0.176-0.178,0.344-0.364,0.518-0.543c7.797-8.029,14.019-17.585,18.18-28.176
			c0.091-0.233,0.186-0.464,0.275-0.697c3.602-9.411,5.594-19.611,5.594-30.273C800.835,1.479,800.825,1.343,800.824,1.204z
			 M631.647,1.617c0-0.139,0.01-0.274,0.01-0.413c0.001-0.152,0.01-0.302,0.011-0.454h83.642l-0.183,0.454l-31.456,78.223
			C653.163,66.757,631.647,36.657,631.647,1.617z M715.866,85.836c-11.133,0-21.759-2.191-31.496-6.133l31.506-78.348l33.122,77.679
			C738.823,83.406,727.624,85.836,715.866,85.836z M749.681,78.725l-32.71-76.714l58.766,58.766
			C768.31,68.292,759.48,74.411,749.681,78.725z M776.255,60.233L717.429,1.408l76.84,30.9
			C790.146,42.804,783.981,52.275,776.255,60.233z M794.545,31.611L718.933,1.204l-1.13-0.454h82.26
			c0.001,0.152,0.011,0.302,0.011,0.454c0.001,0.139,0.01,0.274,0.01,0.413C800.085,12.18,798.112,22.286,794.545,31.611z"/>
	</g>
</g>
</svg>
