<?xml version="1.0" encoding="utf-8"?>
<!-- Generator: Adobe Illustrator 17.0.0, SVG Export Plug-In . SVG Version: 6.00 Build 0)  -->
<!DOCTYPE svg PUBLIC "-//W3C//DTD SVG 1.1//EN" "http://www.w3.org/Graphics/SVG/1.1/DTD/svg11.dtd">
<svg version="1.1" id="Layer_1" xmlns="http://www.w3.org/2000/svg" xmlns:xlink="http://www.w3.org/1999/xlink" x="0px" y="0px"
	 width="1000px" height="386.176px" viewBox="0 0 1000 386.176" enable-background="new 0 0 1000 386.176" xml:space="preserve">
<g>
	<g>
		<linearGradient id="SVGID_1_" gradientUnits="userSpaceOnUse" x1="45.4129" y1="3.3775" x2="500.1215" y2="458.0861">
			<stop  offset="0" style="stop-color:#17B5FF"/>
			<stop  offset="0.2232" style="stop-color:#1BB9FC"/>
			<stop  offset="0.4499" style="stop-color:#26C5F4"/>
			<stop  offset="0.6775" style="stop-color:#39D9E6"/>
			<stop  offset="0.7945" style="stop-color:#45E7DD"/>
			<stop  offset="1" style="stop-color:#45E7DD"/>
		</linearGradient>
		<path fill="url(#SVGID_1_)" d="M75.556,66.989c-4.352,0-8.05-1.523-11.096-4.569c-3.046-3.045-4.569-6.726-4.569-11.042V15.664
			c0-4.351,1.532-8.05,4.595-11.095C67.549,1.524,71.24,0,75.556,0c4.35,0,8.041,1.533,11.069,4.595
			c3.029,3.063,4.542,6.753,4.542,11.069v7.466H80.934v-7.676c0-1.566-0.557-2.906-1.671-4.02c-1.114-1.113-2.454-1.671-4.02-1.671
			c-1.567,0-2.898,0.558-3.994,1.671c-1.097,1.114-1.645,2.454-1.645,4.02v35.818c0,1.566,0.548,2.897,1.645,3.993
			c1.096,1.098,2.427,1.645,3.994,1.645c1.566,0,2.906-0.547,4.02-1.645c1.114-1.096,1.671-2.427,1.671-3.993v-9.032h10.233v9.137
			c0,4.351-1.532,8.041-4.595,11.068C83.509,65.474,79.837,66.989,75.556,66.989z"/>
		<linearGradient id="SVGID_2_" gradientUnits="userSpaceOnUse" x1="311.3089" y1="-181.8731" x2="766.0175" y2="272.8355">
			<stop  offset="0" style="stop-color:#17B5FF"/>
			<stop  offset="0.2232" style="stop-color:#1BB9FC"/>
			<stop  offset="0.4499" style="stop-color:#26C5F4"/>
			<stop  offset="0.6775" style="stop-color:#39D9E6"/>
			<stop  offset="0.7945" style="stop-color:#45E7DD"/>
			<stop  offset="1" style="stop-color:#45E7DD"/>
		</linearGradient>
		<path fill="url(#SVGID_2_)" d="M520.244,73.844V8.37h28.09v9.921h-18.222v17.857h13.314v9.919h-13.314v17.857h18.222v9.921
			H520.244z"/>
		<linearGradient id="SVGID_3_" gradientUnits="userSpaceOnUse" x1="162.6242" y1="161.9537" x2="229.233" y2="228.5624">
			<stop  offset="0" style="stop-color:#17B5FF"/>
			<stop  offset="0.2232" style="stop-color:#1BB9FC"/>
			<stop  offset="0.4499" style="stop-color:#26C5F4"/>
			<stop  offset="0.6775" style="stop-color:#39D9E6"/>
			<stop  offset="0.7945" style="stop-color:#45E7DD"/>
			<stop  offset="1" style="stop-color:#45E7DD"/>
		</linearGradient>
		<path fill="url(#SVGID_3_)" d="M225.814,180.929l-4.381-8.078l-13.109,7.109v-2.647c0-4.315-1.523-8.005-4.568-11.069
			c-3.046-3.062-6.744-4.595-11.095-4.595c-4.281,0-7.955,1.524-11.017,4.569c-3.063,3.047-4.595,6.744-4.595,11.095v19.606
			l-15.35,8.324l4.381,8.078l10.969-5.948v5.653c0,4.317,1.514,8.006,4.542,11.069c3.029,3.063,6.718,4.595,11.069,4.595
			c4.316,0,8.006-1.523,11.069-4.569c3.063-3.045,4.595-6.744,4.595-11.095v-22.613L225.814,180.929z M186.709,177.103
			c0-1.566,0.556-2.897,1.671-3.993c1.114-1.096,2.454-1.645,4.02-1.645c1.566,0,2.898,0.549,3.994,1.645
			c1.096,1.096,1.645,2.427,1.645,3.993v8.434l-11.33,6.144V177.103z M198.039,212.922c0,1.566-0.548,2.899-1.645,3.995
			c-1.096,1.096-2.428,1.644-3.994,1.644c-1.567,0-2.907-0.547-4.02-1.644c-1.114-1.096-1.671-2.429-1.671-3.995v-10.787
			l11.33-6.144V212.922z"/>
		<linearGradient id="SVGID_4_" gradientUnits="userSpaceOnUse" x1="-96.3551" y1="246.1316" x2="358.3535" y2="700.8402">
			<stop  offset="0" style="stop-color:#17B5FF"/>
			<stop  offset="0.2232" style="stop-color:#1BB9FC"/>
			<stop  offset="0.4499" style="stop-color:#26C5F4"/>
			<stop  offset="0.6775" style="stop-color:#39D9E6"/>
			<stop  offset="0.7945" style="stop-color:#45E7DD"/>
			<stop  offset="1" style="stop-color:#45E7DD"/>
		</linearGradient>
		<path fill="url(#SVGID_4_)" d="M31.014,370.512c0,4.316-1.514,8.006-4.542,11.069s-6.683,4.595-10.965,4.595H0v-65.474h15.507
			c4.316,0,7.979,1.532,10.991,4.595c3.01,3.063,4.516,6.735,4.516,11.017V370.512z M9.868,376.412h5.952
			c1.567,0,2.889-0.565,3.968-1.698c1.078-1.131,1.619-2.462,1.619-3.993V336.47c0-1.567-0.548-2.906-1.645-4.02
			c-1.096-1.114-2.41-1.672-3.942-1.672H9.868V376.412z"/>
		<linearGradient id="SVGID_5_" gradientUnits="userSpaceOnUse" x1="379.0745" y1="-19.2108" x2="833.7831" y2="435.4977">
			<stop  offset="0" style="stop-color:#17B5FF"/>
			<stop  offset="0.2232" style="stop-color:#1BB9FC"/>
			<stop  offset="0.4499" style="stop-color:#26C5F4"/>
			<stop  offset="0.6775" style="stop-color:#39D9E6"/>
			<stop  offset="0.7945" style="stop-color:#45E7DD"/>
			<stop  offset="1" style="stop-color:#45E7DD"/>
		</linearGradient>
		<path fill="url(#SVGID_5_)" d="M679.222,291.692h-26.89V226.27h9.868v55.606h17.021V291.692z"/>
		<linearGradient id="SVGID_6_" gradientUnits="userSpaceOnUse" x1="404.8164" y1="-290.2247" x2="859.525" y2="164.4839">
			<stop  offset="0" style="stop-color:#17B5FF"/>
			<stop  offset="0.2232" style="stop-color:#1BB9FC"/>
			<stop  offset="0.4499" style="stop-color:#26C5F4"/>
			<stop  offset="0.6775" style="stop-color:#39D9E6"/>
			<stop  offset="0.7945" style="stop-color:#45E7DD"/>
			<stop  offset="1" style="stop-color:#45E7DD"/>
		</linearGradient>
		<path fill="url(#SVGID_6_)" d="M793.93,126.665h-9.868V61.244h9.868V126.665z"/>
		<linearGradient id="SVGID_7_" gradientUnits="userSpaceOnUse" x1="491.4307" y1="-37.8327" x2="946.1393" y2="416.8759">
			<stop  offset="0" style="stop-color:#17B5FF"/>
			<stop  offset="0.2232" style="stop-color:#1BB9FC"/>
			<stop  offset="0.4499" style="stop-color:#26C5F4"/>
			<stop  offset="0.6775" style="stop-color:#39D9E6"/>
			<stop  offset="0.7945" style="stop-color:#45E7DD"/>
			<stop  offset="1" style="stop-color:#45E7DD"/>
		</linearGradient>
		<path fill="url(#SVGID_7_)" d="M872.521,330.622h-10.495v-9.921h30.805v9.921h-10.443v55.501h-9.868V330.622z"/>
		<linearGradient id="SVGID_8_" gradientUnits="userSpaceOnUse" x1="459.916" y1="-347.6359" x2="914.6246" y2="107.0727">
			<stop  offset="0" style="stop-color:#17B5FF"/>
			<stop  offset="0.2232" style="stop-color:#1BB9FC"/>
			<stop  offset="0.4499" style="stop-color:#26C5F4"/>
			<stop  offset="0.6775" style="stop-color:#39D9E6"/>
			<stop  offset="0.7945" style="stop-color:#45E7DD"/>
			<stop  offset="1" style="stop-color:#45E7DD"/>
		</linearGradient>
		<path fill="url(#SVGID_8_)" d="M979.69,159.503h-10.495v-9.921H1000v9.921h-10.443v55.501h-9.868V159.503z"/>
	</g>
</g>
</svg>
