<?xml version="1.0" encoding="utf-8"?>
<!-- Generator: Adobe Illustrator 17.0.0, SVG Export Plug-In . SVG Version: 6.00 Build 0)  -->
<!DOCTYPE svg PUBLIC "-//W3C//DTD SVG 1.1//EN" "http://www.w3.org/Graphics/SVG/1.1/DTD/svg11.dtd">
<svg version="1.1" id="Layer_1" xmlns="http://www.w3.org/2000/svg" xmlns:xlink="http://www.w3.org/1999/xlink" x="0px" y="0px"
	 width="62.803px" height="50px" viewBox="0 0 62.803 50" enable-background="new 0 0 62.803 50" xml:space="preserve">
<g>
	<path fill="#47B1E4" d="M4.908,20.996c-1.363,0-2.522-0.477-3.476-1.432C0.477,18.61,0,17.457,0,16.105V4.916
		C0,3.553,0.48,2.394,1.44,1.44c0.959-0.954,2.116-1.432,3.468-1.432c1.363,0,2.519,0.48,3.468,1.44
		c0.949,0.96,1.423,2.116,1.423,3.468v2.339H6.592V4.85c0-0.491-0.175-0.91-0.523-1.26C5.72,3.242,5.3,3.067,4.809,3.067
		c-0.491,0-0.908,0.175-1.251,0.523C3.214,3.94,3.043,4.36,3.043,4.85v11.222c0,0.491,0.172,0.908,0.515,1.251
		c0.343,0.344,0.761,0.515,1.251,0.515c0.491,0,0.91-0.172,1.26-0.515c0.349-0.343,0.523-0.761,0.523-1.251v-2.83h3.206v2.863
		c0,1.363-0.48,2.519-1.44,3.468C7.399,20.521,6.249,20.996,4.908,20.996z"/>
	<path fill="#47B1E4" d="M46.287,15.827c0,1.352-0.474,2.508-1.423,3.468c-0.949,0.96-2.094,1.44-3.435,1.44h-4.858V0.221h4.858
		c1.352,0,2.5,0.48,3.443,1.44c0.943,0.96,1.415,2.11,1.415,3.452V15.827z M39.662,17.675h1.865c0.491,0,0.905-0.177,1.243-0.532
		c0.338-0.354,0.507-0.771,0.507-1.251V5.161c0-0.491-0.172-0.91-0.515-1.26c-0.343-0.349-0.755-0.524-1.235-0.524h-1.865V17.675z"
		/>
	<path fill="#47B1E4" d="M53.403,20.734V0.221h8.801v3.108h-5.709v5.595h4.171v3.108h-4.171v5.595h5.709v3.108H53.403z"/>
	<path fill="#47B1E4" d="M10.57,50H2.146V29.503h3.092v17.421h5.333V50z"/>
	<path fill="#47B1E4" d="M24.265,50h-3.092V29.503h3.092V50z"/>
	<path fill="#47B1E4" d="M39.542,32.611h-3.288v-3.108h9.651v3.108h-3.272V50h-3.092V32.611z"/>
	<path fill="#47B1E4" d="M56.44,32.611h-3.288v-3.108h9.651v3.108h-3.272V50H56.44V32.611z"/>
	<path fill="#47B1E4" d="M33.059,6.041L31.686,3.51l-4.107,2.227V4.908c0-1.352-0.477-2.508-1.431-3.468
		C25.194,0.48,24.035,0,22.672,0c-1.341,0-2.492,0.478-3.452,1.432c-0.96,0.954-1.44,2.113-1.44,3.476v6.143l-4.809,2.608
		l1.372,2.531l3.437-1.864v1.771c0,1.352,0.474,2.508,1.423,3.468c0.949,0.96,2.105,1.44,3.468,1.44
		c1.352,0,2.508-0.477,3.468-1.432c0.96-0.954,1.44-2.113,1.44-3.476V9.012L33.059,6.041z M20.807,4.842
		c0-0.491,0.174-0.908,0.523-1.251c0.349-0.343,0.769-0.515,1.26-0.515c0.491,0,0.908,0.172,1.251,0.515s0.515,0.761,0.515,1.251
		v2.642l-3.55,1.925V4.842z M24.357,16.064c0,0.491-0.172,0.908-0.515,1.252c-0.343,0.343-0.761,0.515-1.251,0.515
		c-0.491,0-0.911-0.172-1.26-0.515c-0.349-0.343-0.523-0.761-0.523-1.252v-3.38l3.55-1.925V16.064z"/>
</g>
</svg>
