<?xml version="1.0" encoding="utf-8"?>
<!-- Generator: Adobe Illustrator 17.0.0, SVG Export Plug-In . SVG Version: 6.00 Build 0)  -->
<!DOCTYPE svg PUBLIC "-//W3C//DTD SVG 1.1//EN" "http://www.w3.org/Graphics/SVG/1.1/DTD/svg11.dtd">
<svg version="1.1" xmlns="http://www.w3.org/2000/svg" xmlns:xlink="http://www.w3.org/1999/xlink" x="0px" y="0px" width="30px"
	 height="30px" viewBox="0 0 30 30" enable-background="new 0 0 30 30" xml:space="preserve">
<g id="Layer_1">
	<g>
		<g>
			<rect x="0" y="0" fill="none" width="30" height="30"/>
			<path opacity="0.6" fill="#47B1E4" d="M15,8.211c-3.751,0-6.789,3.038-6.789,6.789s3.038,6.789,6.789,6.789
				s6.789-3.038,6.789-6.789S18.751,8.211,15,8.211z M15,10.248c1.124,0,2.037,0.913,2.037,2.037c0,1.127-0.913,2.037-2.037,2.037
				s-2.037-0.91-2.037-2.037C12.963,11.161,13.877,10.248,15,10.248z M15,19.888c-1.701,0-3.194-0.869-4.073-2.186
				c0.017-1.348,2.719-2.091,4.073-2.091s4.053,0.743,4.073,2.091C18.194,19.019,16.701,19.888,15,19.888z"/>
		</g>
	</g>
</g>
<g id="Layer_2">
</g>
</svg>
