<?xml version="1.0" encoding="utf-8"?>
<!-- Generator: Adobe Illustrator 17.0.0, SVG Export Plug-In . SVG Version: 6.00 Build 0)  -->
<!DOCTYPE svg PUBLIC "-//W3C//DTD SVG 1.1//EN" "http://www.w3.org/Graphics/SVG/1.1/DTD/svg11.dtd">
<svg version="1.1" xmlns="http://www.w3.org/2000/svg" xmlns:xlink="http://www.w3.org/1999/xlink" x="0px" y="0px" width="30px"
	 height="30px" viewBox="0 0 30 30" enable-background="new 0 0 30 30" xml:space="preserve">
<g id="Layer_1">
	<g>
		<g>
			<rect x="0" y="0" fill="none" width="30" height="30"/>
			<path opacity="0.6" fill="#47B1E4" d="M11.192,14.146c1.02,2.005,2.66,3.645,4.669,4.665l1.559-1.562
				c0.195-0.195,0.475-0.252,0.719-0.174c0.794,0.262,1.647,0.404,2.529,0.404c0.393,0,0.708,0.315,0.708,0.708v2.48
				c0,0.393-0.315,0.708-0.708,0.708c-6.653,0-12.044-5.392-12.044-12.044c0-0.393,0.319-0.708,0.708-0.708h2.48
				c0.393,0,0.708,0.315,0.708,0.708c0,0.882,0.142,1.736,0.404,2.529c0.078,0.244,0.021,0.524-0.174,0.719L11.192,14.146z"/>
		</g>
	</g>
</g>
<g id="Layer_2">
</g>
</svg>
