<?xml version="1.0" encoding="utf-8"?>
<!-- Generator: Adobe Illustrator 17.0.0, SVG Export Plug-In . SVG Version: 6.00 Build 0)  -->
<!DOCTYPE svg PUBLIC "-//W3C//DTD SVG 1.1//EN" "http://www.w3.org/Graphics/SVG/1.1/DTD/svg11.dtd">
<svg version="1.1" xmlns="http://www.w3.org/2000/svg" xmlns:xlink="http://www.w3.org/1999/xlink" x="0px" y="0px" width="30px"
	 height="30px" viewBox="0 0 30 30" enable-background="new 0 0 30 30" xml:space="preserve">
<g id="Layer_1">
	<g>
		<rect x="0" y="0" fill="none" width="30" height="30"/>
		<path fill="#FFFFFF" d="M10.701,14.036c1.152,2.264,3.004,4.116,5.271,5.267l1.76-1.764c0.22-0.22,0.536-0.284,0.812-0.196
			c0.896,0.296,1.86,0.456,2.856,0.456c0.444,0,0.8,0.356,0.8,0.8v2.8c0,0.444-0.356,0.8-0.8,0.8
			c-7.511,0-13.598-6.087-13.598-13.598c0-0.444,0.36-0.8,0.8-0.8h2.8c0.444,0,0.8,0.356,0.8,0.8c0,0.996,0.16,1.96,0.456,2.856
			c0.088,0.276,0.024,0.592-0.196,0.812L10.701,14.036z"/>
	</g>
</g>
<g id="Layer_2">
</g>
</svg>
