<?xml version="1.0" encoding="utf-8"?>
<!-- Generator: Adobe Illustrator 17.0.0, SVG Export Plug-In . SVG Version: 6.00 Build 0)  -->
<!DOCTYPE svg PUBLIC "-//W3C//DTD SVG 1.1//EN" "http://www.w3.org/Graphics/SVG/1.1/DTD/svg11.dtd">
<svg version="1.1" xmlns="http://www.w3.org/2000/svg" xmlns:xlink="http://www.w3.org/1999/xlink" x="0px" y="0px" width="30px"
	 height="30px" viewBox="0 0 30 30" enable-background="new 0 0 30 30" xml:space="preserve">
<g id="Layer_1">
	<g>
		<g>
			<path opacity="0.6" fill="#47B1E4" d="M20.803,10.702h-2.902V9.252c0-0.802-0.649-1.451-1.451-1.451h-2.902
				c-0.802,0-1.451,0.649-1.451,1.451v1.451H9.197c-0.802,0-1.444,0.649-1.444,1.451l-0.007,7.98c0,0.802,0.649,1.451,1.451,1.451
				h11.607c0.802,0,1.451-0.649,1.451-1.451v-7.98C22.254,11.352,21.605,10.702,20.803,10.702z M16.451,10.702h-2.902V9.252h2.902
				V10.702z"/>
			<rect x="0" y="0" fill="none" width="30" height="30"/>
		</g>
	</g>
</g>
<g id="Layer_2">
</g>
</svg>
